<svg width="261" height="78" viewBox="0 0 261 78" fill="none" xmlns="http://www.w3.org/2000/svg">
<path fill-rule="evenodd" clip-rule="evenodd" d="M0.328724 7.1504C0 8.37722 0 9.87251 0 12.8631V64.3154C0 67.306 0 68.8013 0.328724 70.0281C1.22078 73.3573 3.82119 75.9577 7.1504 76.8498C8.37722 77.1785 9.87251 77.1785 12.8631 77.1785H38.5892C55.8738 77.1785 70.5042 65.8146 75.4167 50.1505C69.3038 49.8363 64.444 44.7803 64.444 38.5892C64.444 32.3982 69.3038 27.3422 75.4167 27.028C70.5042 11.3639 55.8738 0 38.5892 0H12.8631C9.8725 0 8.37722 0 7.1504 0.328724C3.82119 1.22078 1.22078 3.82119 0.328724 7.1504ZM34.1515 53.0602C42.1436 53.0602 48.6224 46.5813 48.6224 38.5892C48.6224 30.5972 42.1436 24.1183 34.1515 24.1183C26.1594 24.1183 19.6805 30.5972 19.6805 38.5892C19.6805 46.5813 26.1594 53.0602 34.1515 53.0602ZM24.4896 22.0325C25.9598 21.1692 26.4518 19.2774 25.5885 17.8072C24.7251 16.3369 22.8334 15.845 21.3631 16.7083C19.8929 17.5717 19.4009 19.4634 20.2643 20.9336C21.1276 22.4039 23.0194 22.8958 24.4896 22.0325ZM24.4463 59.8722C25.9165 59.0089 26.4085 57.1171 25.5451 55.6469C24.6818 54.1766 22.79 53.6847 21.3198 54.548C19.8496 55.4114 19.3576 57.3031 20.2209 58.7733C21.0843 60.2436 22.976 60.7355 24.4463 59.8722ZM58.5718 36.2531C59.4351 37.7233 58.9431 39.6151 57.4729 40.4784C56.0026 41.3418 54.1109 40.8498 53.2476 39.3796C52.3842 37.9093 52.8762 36.0176 54.3464 35.1542C55.8167 34.2909 57.7084 34.7829 58.5718 36.2531ZM76.1173 48.2366C81.4453 48.2366 85.7646 43.9173 85.7646 38.5892C85.7646 33.2612 81.4453 28.9419 76.1173 28.9419C70.7892 28.9419 66.47 33.2612 66.47 38.5892C66.47 43.9173 70.7892 48.2366 76.1173 48.2366Z" fill="#25B679"/>
<path fill-rule="evenodd" clip-rule="evenodd" d="M136.352 48.116V5.47607H128.459V48.116H136.352ZM104.224 19.2318C102.127 19.9944 100.21 21.1574 98.4755 22.7208L99.8768 25.2374C100.125 25.6187 100.43 25.9524 100.792 26.2384C101.173 26.5053 101.64 26.6387 102.193 26.6387C102.822 26.6387 103.375 26.5148 103.852 26.267C104.329 26 104.834 25.7236 105.368 25.4376C105.921 25.1326 106.559 24.8561 107.284 24.6083C108.008 24.3414 108.914 24.2079 110.001 24.2079C111.469 24.2079 112.594 24.6464 113.375 25.5234C114.157 26.3814 114.548 27.735 114.548 29.5844V31.1001C111.173 31.1763 108.361 31.51 106.111 32.101C103.881 32.673 102.088 33.407 100.735 34.3031C99.4002 35.1801 98.4565 36.1619 97.9036 37.2487C97.3507 38.3354 97.0742 39.4221 97.0742 40.5089C97.0742 41.8244 97.2839 42.9874 97.7034 43.9979C98.1228 45.0083 98.7138 45.8567 99.4765 46.5431C100.258 47.2104 101.183 47.7156 102.25 48.0588C103.318 48.402 104.5 48.5736 105.797 48.5736C106.845 48.5736 107.789 48.4878 108.628 48.3162C109.486 48.1446 110.287 47.8967 111.03 47.5726C111.774 47.2294 112.489 46.81 113.175 46.3143C113.88 45.8186 114.605 45.2466 115.348 44.5984L115.978 46.4859C116.225 47.1532 116.54 47.5917 116.921 47.8014C117.322 48.0111 117.894 48.116 118.637 48.116H122.241V29.5844C122.241 27.9066 121.983 26.3623 121.469 24.9514C120.954 23.5406 120.21 22.3299 119.238 21.3195C118.285 20.2899 117.112 19.4892 115.72 18.9172C114.348 18.3453 112.784 18.0593 111.03 18.0593C108.59 18.0593 106.321 18.4501 104.224 19.2318ZM109.612 42.7743C106.643 43.8547 103.69 43.2266 103.015 41.3713C102.339 39.5161 104.198 37.1363 107.167 36.0559C110.135 34.9755 113.089 35.6036 113.764 37.4589C114.439 39.3141 112.58 41.6939 109.612 42.7743ZM148.015 19.2318C145.918 19.9944 144.002 21.1574 142.267 22.7208L143.668 25.2374C143.916 25.6187 144.221 25.9524 144.583 26.2384C144.964 26.5053 145.431 26.6387 145.984 26.6387C146.613 26.6387 147.166 26.5148 147.643 26.267C148.12 26 148.625 25.7236 149.159 25.4376C149.712 25.1326 150.35 24.8561 151.075 24.6083C151.799 24.3414 152.705 24.2079 153.792 24.2079C155.26 24.2079 156.385 24.6464 157.166 25.5234C157.948 26.3814 158.339 27.735 158.339 29.5844V31.1001C154.964 31.1763 152.152 31.51 149.902 32.101C147.672 32.673 145.879 33.407 144.526 34.3031C143.191 35.1801 142.247 36.1619 141.695 37.2487C141.142 38.3354 140.865 39.4221 140.865 40.5089C140.865 41.8244 141.075 42.9874 141.494 43.9979C141.914 45.0083 142.505 45.8567 143.267 46.5431C144.049 47.2104 144.974 47.7156 146.042 48.0588C147.109 48.402 148.291 48.5736 149.588 48.5736C150.636 48.5736 151.58 48.4878 152.419 48.3162C153.277 48.1446 154.078 47.8967 154.821 47.5726C155.565 47.2294 156.28 46.81 156.966 46.3143C157.671 45.8186 158.396 45.2466 159.14 44.5984L159.769 46.4859C160.017 47.1532 160.331 47.5917 160.712 47.8014C161.113 48.0111 161.685 48.116 162.428 48.116H166.032V29.5844C166.032 27.9066 165.774 26.3623 165.26 24.9514C164.745 23.5406 164.001 22.3299 163.029 21.3195C162.076 20.2899 160.903 19.4892 159.511 18.9172C158.139 18.3453 156.575 18.0593 154.821 18.0593C152.381 18.0593 150.112 18.4501 148.015 19.2318ZM146.841 41.3746C147.517 43.2298 150.47 43.8579 153.439 42.7775C156.407 41.6971 158.266 39.3173 157.591 37.4621C156.915 35.6069 153.962 34.9787 150.993 36.0591C148.025 37.1395 146.166 39.5193 146.841 41.3746ZM198.303 5.47607V48.116H193.441C192.431 48.116 191.783 47.6584 191.497 46.7433L190.839 44.1694C190.248 44.8177 189.619 45.4087 188.951 45.9425C188.303 46.4764 187.598 46.9435 186.835 47.3438C186.072 47.7251 185.253 48.0207 184.376 48.2304C183.499 48.4401 182.545 48.545 181.516 48.545C179.933 48.545 178.484 48.2113 177.169 47.544C175.853 46.8767 174.709 45.9044 173.737 44.627C172.784 43.3306 172.04 41.7481 171.506 39.8797C170.973 38.0113 170.706 35.876 170.706 33.4737C170.706 31.2812 171.001 29.2412 171.592 27.3537C172.202 25.4662 173.06 23.8361 174.166 22.4634C175.272 21.0907 176.606 20.0135 178.17 19.2318C179.733 18.4501 181.468 18.0593 183.375 18.0593C184.976 18.0593 186.32 18.2976 187.407 18.7742C188.513 19.2509 189.514 19.8991 190.41 20.7189V5.47607H198.303ZM209.959 19.2318C207.862 19.9944 205.946 21.1574 204.211 22.7208L205.612 25.2374C205.86 25.6187 206.165 25.9524 206.527 26.2384C206.909 26.5053 207.376 26.6387 207.929 26.6387C208.558 26.6387 209.111 26.5148 209.587 26.267C210.064 26 210.569 25.7236 211.103 25.4376C211.656 25.1326 212.295 24.8561 213.019 24.6083C213.743 24.3414 214.649 24.2079 215.736 24.2079C217.204 24.2079 218.329 24.6464 219.11 25.5234C219.892 26.3814 220.283 27.735 220.283 29.5844V31.1001C216.908 31.1763 214.096 31.51 211.846 32.101C209.616 32.673 207.824 33.407 206.47 34.3031C205.135 35.1801 204.192 36.1619 203.639 37.2487C203.086 38.3354 202.809 39.4221 202.809 40.5089C202.809 41.8244 203.019 42.9874 203.439 43.9979C203.858 45.0083 204.449 45.8567 205.212 46.5431C205.993 47.2104 206.918 47.7156 207.986 48.0588C209.053 48.402 210.235 48.5736 211.532 48.5736C212.581 48.5736 213.524 48.4878 214.363 48.3162C215.221 48.1446 216.022 47.8967 216.765 47.5726C217.509 47.2294 218.224 46.81 218.91 46.3143C219.616 45.8186 220.34 45.2466 221.084 44.5984L221.713 46.4859C221.961 47.1532 222.275 47.5917 222.657 47.8014C223.057 48.0111 223.629 48.116 224.372 48.116H227.976V29.5844C227.976 27.9066 227.718 26.3623 227.204 24.9514C226.689 23.5406 225.945 22.3299 224.973 21.3195C224.02 20.2899 222.847 19.4892 221.455 18.9172C220.083 18.3453 218.519 18.0593 216.765 18.0593C214.325 18.0593 212.056 18.4501 209.959 19.2318ZM208.756 41.3746C209.432 43.2298 212.385 43.8579 215.354 42.7775C218.322 41.6971 220.181 39.3173 219.506 37.4621C218.831 35.6069 215.877 34.9787 212.908 36.0591C209.94 37.1395 208.081 39.5193 208.756 41.3746ZM241.458 22.063C242.049 21.4911 242.659 20.9668 243.288 20.4901C243.937 20.0135 244.613 19.6036 245.319 19.2604C246.043 18.9172 246.816 18.6503 247.635 18.4597C248.474 18.269 249.38 18.1737 250.352 18.1737C251.954 18.1737 253.374 18.4501 254.613 19.003C255.853 19.5559 256.892 20.3281 257.731 21.3195C258.588 22.3109 259.227 23.4929 259.647 24.8657C260.085 26.2384 260.304 27.7445 260.304 29.3842V48.116H252.44V29.3842C252.44 27.7445 252.059 26.4767 251.296 25.5806C250.533 24.6655 249.408 24.2079 247.921 24.2079C246.816 24.2079 245.776 24.4462 244.804 24.9228C243.832 25.3995 242.907 26.0668 242.03 26.9247V48.116H234.137V18.6312H238.999C239.99 18.6312 240.648 19.0888 240.972 20.004L241.458 22.063ZM183.347 41.0116C186.822 41.0116 189.639 37.4905 189.639 33.147C189.639 28.8036 186.822 25.2825 183.347 25.2825C179.873 25.2825 177.056 28.8036 177.056 33.147C177.056 37.4905 179.873 41.0116 183.347 41.0116Z" fill="#25B679"/>
<path fill-rule="evenodd" clip-rule="evenodd" d="M196.546 61.5651C196.698 61.4287 196.855 61.3055 197.018 61.1954C197.185 61.0801 197.361 60.9831 197.545 60.9044C197.733 60.8206 197.933 60.7576 198.142 60.7157C198.357 60.6685 198.588 60.6449 198.834 60.6449C199.275 60.6449 199.665 60.7209 200.006 60.873C200.347 61.025 200.633 61.2374 200.863 61.51C201.099 61.7826 201.275 62.1077 201.39 62.4852C201.511 62.8627 201.571 63.2769 201.571 63.7278V68.8791H199.408V63.7278C199.408 63.2769 199.304 62.9282 199.094 62.6818C198.884 62.4302 198.575 62.3043 198.166 62.3043C197.862 62.3043 197.576 62.3699 197.309 62.5009C197.041 62.632 196.787 62.8155 196.546 63.0515V68.8791H194.375V57.1531H196.546V61.5651ZM106.881 65.4737C107.164 64.7712 107.306 64.0031 107.306 63.1694C107.306 62.341 107.164 61.5782 106.881 60.8809C106.603 60.1835 106.208 59.5832 105.694 59.0799C105.185 58.5713 104.572 58.1755 103.853 57.8923C103.135 57.6092 102.338 57.4677 101.463 57.4677H97.0742V68.8791H101.463C102.338 68.8791 103.135 68.7375 103.853 68.4544C104.572 68.1712 105.185 67.778 105.694 67.2747C106.208 66.7714 106.603 66.171 106.881 65.4737ZM104.648 61.5572C104.805 62.0343 104.884 62.5717 104.884 63.1694C104.884 63.7724 104.805 64.3124 104.648 64.7895C104.49 65.2666 104.265 65.673 103.971 66.0085C103.678 66.3388 103.319 66.5931 102.894 66.7714C102.475 66.9444 101.997 67.0309 101.463 67.0309H99.4493V59.3158H101.463C101.997 59.3158 102.475 59.4049 102.894 59.5832C103.319 59.7615 103.678 60.0158 103.971 60.3461C104.265 60.6764 104.49 61.0801 104.648 61.5572ZM109.957 60.9359C109.38 61.1456 108.853 61.4654 108.376 61.8954L108.761 62.5874C108.829 62.6923 108.913 62.7841 109.013 62.8627C109.118 62.9361 109.246 62.9728 109.398 62.9728C109.571 62.9728 109.723 62.9387 109.854 62.8706C109.985 62.7972 110.124 62.7211 110.271 62.6425C110.423 62.5586 110.599 62.4826 110.798 62.4144C110.997 62.341 111.246 62.3043 111.545 62.3043C111.949 62.3043 112.258 62.4249 112.473 62.6661C112.688 62.902 112.796 63.2743 112.796 63.7829V64.1997C111.868 64.2206 111.094 64.3124 110.476 64.4749C109.862 64.6322 109.369 64.8341 108.997 65.0805C108.63 65.3217 108.371 65.5917 108.219 65.8905C108.067 66.1894 107.991 66.4882 107.991 66.7871C107.991 67.1489 108.048 67.4687 108.164 67.7466C108.279 68.0244 108.441 68.2578 108.651 68.4465C108.866 68.63 109.12 68.7689 109.414 68.8633C109.708 68.9577 110.033 69.0049 110.389 69.0049C110.678 69.0049 110.937 68.9813 111.168 68.9341C111.404 68.8869 111.624 68.8188 111.828 68.7296C112.033 68.6353 112.229 68.5199 112.418 68.3836C112.612 68.2473 112.811 68.09 113.016 67.9117L113.189 68.4308C113.257 68.6143 113.344 68.7349 113.448 68.7925C113.559 68.8502 113.716 68.8791 113.92 68.8791H114.911V63.7829C114.911 63.3215 114.841 62.8968 114.699 62.5088C114.557 62.1208 114.353 61.7879 114.086 61.51C113.823 61.2269 113.501 61.0067 113.118 60.8494C112.741 60.6921 112.311 60.6135 111.828 60.6135C111.157 60.6135 110.533 60.7209 109.957 60.9359ZM110.592 65.5398C109.8 65.8283 109.313 66.4904 109.505 67.0187C109.698 67.547 110.496 67.7415 111.288 67.453C112.081 67.1646 112.567 66.5025 112.375 65.9742C112.183 65.4459 111.385 65.2514 110.592 65.5398ZM121.647 62.438C121.589 62.5272 121.529 62.5927 121.466 62.6346C121.408 62.6713 121.327 62.6897 121.222 62.6897C121.117 62.6897 121.01 62.6635 120.9 62.611C120.79 62.5586 120.666 62.5036 120.53 62.4459C120.394 62.383 120.236 62.3253 120.058 62.2729C119.885 62.2204 119.683 62.1942 119.453 62.1942C119.101 62.1942 118.829 62.2676 118.635 62.4144C118.441 62.556 118.344 62.7447 118.344 62.9807C118.344 63.1432 118.399 63.2795 118.509 63.3896C118.619 63.4997 118.763 63.5967 118.941 63.6806C119.125 63.7593 119.332 63.8353 119.563 63.9087C119.793 63.9768 120.029 64.0529 120.27 64.1368C120.517 64.2206 120.755 64.3176 120.986 64.4277C121.217 64.5378 121.421 64.6768 121.6 64.8446C121.783 65.0071 121.93 65.2063 122.04 65.4423C122.15 65.673 122.205 65.9535 122.205 66.2838C122.205 66.677 122.132 67.0414 121.985 67.3769C121.843 67.7072 121.634 67.993 121.356 68.2342C121.078 68.4753 120.732 68.6641 120.318 68.8004C119.903 68.9367 119.426 69.0049 118.886 69.0049C118.608 69.0049 118.333 68.9787 118.061 68.9262C117.788 68.8791 117.528 68.8109 117.282 68.7218C117.036 68.6274 116.805 68.5199 116.59 68.3993C116.375 68.2787 116.189 68.1477 116.031 68.0061L116.535 67.196C116.592 67.1017 116.663 67.0283 116.747 66.9758C116.836 66.9234 116.949 66.8972 117.085 66.8972C117.216 66.8972 117.337 66.9313 117.447 66.9994C117.557 67.0624 117.68 67.1331 117.817 67.2118C117.953 67.2852 118.113 67.356 118.296 67.4241C118.485 67.487 118.719 67.5185 118.996 67.5185C119.206 67.5185 119.387 67.4949 119.539 67.4477C119.691 67.4005 119.814 67.3376 119.909 67.259C120.003 67.1751 120.071 67.0833 120.113 66.9837C120.16 66.8788 120.184 66.7714 120.184 66.6613C120.184 66.483 120.126 66.3388 120.011 66.2287C119.901 66.1134 119.754 66.0138 119.571 65.9299C119.392 65.846 119.185 65.77 118.949 65.7018C118.713 65.6336 118.472 65.5576 118.226 65.4737C117.985 65.3898 117.746 65.2902 117.51 65.1749C117.279 65.0595 117.072 64.9153 116.889 64.7423C116.71 64.5641 116.564 64.3465 116.448 64.0896C116.338 63.8327 116.283 63.5207 116.283 63.1537C116.283 62.8181 116.349 62.5009 116.48 62.2021C116.611 61.898 116.807 61.6306 117.07 61.3999C117.332 61.1692 117.657 60.9857 118.045 60.8494C118.438 60.7131 118.892 60.6449 119.405 60.6449C119.982 60.6449 120.506 60.7393 120.978 60.928C121.45 61.1168 121.838 61.3632 122.142 61.6673L121.647 62.438ZM125.388 68.8476C125.672 68.9525 125.997 69.0049 126.364 69.0049C126.767 69.0049 127.158 68.9446 127.535 68.824C127.913 68.7034 128.251 68.5252 128.55 68.2892L127.897 67.2511C127.855 67.1829 127.813 67.1358 127.771 67.1095C127.729 67.0781 127.677 67.0624 127.614 67.0624C127.567 67.0624 127.52 67.0755 127.473 67.1017C127.431 67.1226 127.383 67.1489 127.331 67.1803C127.279 67.2065 127.216 67.2327 127.142 67.259C127.069 67.2799 126.98 67.2904 126.875 67.2904C126.676 67.2904 126.521 67.2249 126.411 67.0938C126.306 66.9627 126.254 66.7845 126.254 66.559V62.3279H128.345V60.8179H126.254V58.3485H125.121C124.859 58.3485 124.699 58.4664 124.641 58.7024L124.201 60.8022L122.903 61.0381V61.8875C122.903 62.0343 122.943 62.1444 123.021 62.2178C123.105 62.2912 123.205 62.3279 123.32 62.3279H124.083V66.7006C124.083 67.0571 124.133 67.3769 124.232 67.6601C124.332 67.9432 124.479 68.1844 124.673 68.3836C124.867 68.5828 125.105 68.7375 125.388 68.8476ZM136.626 60.7707V68.8791H135.289C135.011 68.8791 134.833 68.7532 134.754 68.5016L134.612 67.9353C134.45 68.0926 134.282 68.2368 134.109 68.3679C133.936 68.4989 133.75 68.6117 133.551 68.706C133.357 68.8004 133.144 68.8738 132.914 68.9262C132.688 68.9787 132.442 69.0049 132.174 69.0049C131.734 69.0049 131.341 68.9289 130.995 68.7768C130.654 68.6248 130.368 68.4124 130.137 68.1398C129.907 67.8672 129.731 67.5421 129.611 67.1646C129.49 66.7871 129.43 66.3729 129.43 65.922V60.7707H131.6V65.922C131.6 66.3729 131.703 66.7242 131.907 66.9758C132.117 67.2223 132.426 67.3455 132.835 67.3455C133.139 67.3455 133.425 67.2799 133.692 67.1489C133.96 67.0125 134.214 66.829 134.455 66.5983V60.7707H136.626ZM141.343 61.0145C141.007 61.2819 140.711 61.6463 140.454 62.1077L140.336 61.2977C140.3 61.1037 140.239 60.9674 140.155 60.8887C140.072 60.8101 139.919 60.7707 139.699 60.7707H138.417V68.8791H140.588V63.9166C140.672 63.7226 140.761 63.5495 140.855 63.3975C140.955 63.2454 141.065 63.117 141.186 63.0121C141.306 62.9073 141.443 62.826 141.595 62.7683C141.752 62.7107 141.93 62.6818 142.129 62.6818C142.266 62.6818 142.413 62.6949 142.57 62.7211C142.727 62.7421 142.848 62.7526 142.932 62.7526C143.026 62.7526 143.099 62.7343 143.152 62.6976C143.209 62.6556 143.251 62.5822 143.278 62.4773L143.419 60.873C143.188 60.7 142.89 60.6135 142.523 60.6135C142.072 60.6135 141.678 60.7472 141.343 61.0145ZM151.826 68.8791H149.741C149.584 68.8791 149.456 68.8397 149.356 68.7611C149.262 68.6824 149.186 68.5907 149.128 68.4858L147.532 65.8198C147.484 65.998 147.416 66.1553 147.327 66.2916L145.959 68.4858C145.896 68.5854 145.817 68.6772 145.723 68.7611C145.634 68.8397 145.518 68.8791 145.377 68.8791H143.442L146.195 64.6951L143.552 60.7707H145.636C145.794 60.7707 145.909 60.7917 145.982 60.8337C146.056 60.8756 146.121 60.9438 146.179 61.0381L147.767 63.6098C147.794 63.5207 147.828 63.4316 147.87 63.3424C147.912 63.2481 147.961 63.1563 148.019 63.0672L149.238 61.0775C149.364 60.873 149.527 60.7707 149.726 60.7707H151.715L149.073 64.6008L151.826 68.8791ZM157.666 60.9359C157.168 60.7419 156.614 60.6449 156.006 60.6449C155.393 60.6449 154.834 60.7419 154.331 60.9359C153.833 61.1299 153.406 61.4078 153.049 61.7695C152.693 62.1261 152.415 62.5612 152.215 63.075C152.022 63.5889 151.925 64.1682 151.925 64.8131C151.925 65.458 152.022 66.04 152.215 66.559C152.415 67.0728 152.693 67.5106 153.049 67.8724C153.406 68.2342 153.833 68.512 154.331 68.706C154.834 68.9 155.393 68.997 156.006 68.997C156.614 68.997 157.168 68.9 157.666 68.706C158.164 68.512 158.591 68.2342 158.948 67.8724C159.304 67.5106 159.579 67.0728 159.773 66.559C159.967 66.04 160.064 65.458 160.064 64.8131C160.064 64.1682 159.967 63.5889 159.773 63.075C159.579 62.5612 159.304 62.1261 158.948 61.7695C158.591 61.4078 158.164 61.1299 157.666 60.9359ZM157.382 66.732C157.084 67.1567 156.625 67.3691 156.006 67.3691C155.372 67.3691 154.905 67.1567 154.606 66.732C154.307 66.3021 154.158 65.6651 154.158 64.821C154.158 63.9821 154.307 63.3503 154.606 62.9256C154.905 62.4957 155.372 62.2807 156.006 62.2807C156.625 62.2807 157.084 62.4957 157.382 62.9256C157.681 63.3503 157.831 63.9821 157.831 64.821C157.831 65.6651 157.681 66.3021 157.382 66.732ZM163.44 61.7145C163.603 61.5572 163.771 61.413 163.944 61.2819C164.122 61.1509 164.308 61.0381 164.502 60.9438C164.701 60.8494 164.914 60.776 165.139 60.7236C165.37 60.6711 165.619 60.6449 165.886 60.6449C166.327 60.6449 166.717 60.7209 167.058 60.873C167.399 61.025 167.685 61.2374 167.915 61.51C168.151 61.7826 168.327 62.1077 168.442 62.4852C168.563 62.8627 168.623 63.2769 168.623 63.7278V68.8791H166.46V63.7278C166.46 63.2769 166.356 62.9282 166.146 62.6818C165.936 62.4302 165.627 62.3043 165.218 62.3043C164.914 62.3043 164.628 62.3699 164.361 62.5009C164.093 62.632 163.839 62.8155 163.598 63.0515V68.8791H161.427V60.7707H162.764C163.037 60.7707 163.218 60.8966 163.307 61.1482L163.44 61.7145ZM177.579 61.8325V61.0381H175.204C174.674 60.7655 174.064 60.6292 173.372 60.6292C172.905 60.6292 172.472 60.6895 172.074 60.8101C171.675 60.9307 171.329 61.1063 171.036 61.337C170.742 61.5624 170.511 61.8377 170.344 62.1628C170.181 62.4878 170.1 62.8522 170.1 63.2559C170.1 63.7488 170.22 64.1813 170.462 64.5536C170.703 64.9206 171.031 65.2142 171.445 65.4344C171.078 65.6127 170.805 65.8355 170.627 66.1029C170.454 66.3703 170.367 66.6246 170.367 66.8657C170.367 67.1646 170.428 67.4084 170.548 67.5971C170.674 67.7806 170.839 67.9301 171.044 68.0454C170.656 68.1975 170.352 68.3993 170.131 68.651C169.911 68.9026 169.801 69.2094 169.801 69.5711C169.801 69.849 169.874 70.1164 170.021 70.3733C170.168 70.6302 170.391 70.8557 170.69 71.0497C170.994 71.2489 171.374 71.4062 171.83 71.5215C172.291 71.6421 172.834 71.7024 173.458 71.7024C174.087 71.7024 174.648 71.6211 175.141 71.4586C175.634 71.2961 176.048 71.0811 176.384 70.8137C176.724 70.5463 176.984 70.2422 177.162 69.9014C177.34 69.5606 177.43 69.2094 177.43 68.8476C177.43 68.4596 177.354 68.1424 177.202 67.896C177.055 67.6496 176.858 67.453 176.612 67.3062C176.371 67.1541 176.093 67.0466 175.778 66.9837C175.469 66.9155 175.152 66.8684 174.826 66.8421C174.507 66.8159 174.189 66.8002 173.875 66.795C173.566 66.7845 173.288 66.7661 173.041 66.7399C172.8 66.7084 172.603 66.6586 172.451 66.5905C172.305 66.5223 172.231 66.4122 172.231 66.2602C172.231 66.0976 172.341 65.9482 172.561 65.8119C172.813 65.8591 173.083 65.8827 173.372 65.8827C173.828 65.8827 174.252 65.8224 174.646 65.7018C175.039 65.576 175.38 65.4003 175.668 65.1749C175.956 64.9442 176.182 64.6689 176.344 64.3491C176.512 64.024 176.596 63.6596 176.596 63.2559C176.596 62.9623 176.551 62.6871 176.462 62.4302L177.123 62.2965C177.285 62.2598 177.401 62.2047 177.469 62.1313C177.542 62.0579 177.579 61.9583 177.579 61.8325ZM174.355 64.1839C174.145 64.4094 173.817 64.5221 173.372 64.5221C172.931 64.5221 172.603 64.4094 172.388 64.1839C172.179 63.9533 172.074 63.6623 172.074 63.311C172.074 62.9387 172.179 62.6477 172.388 62.438C172.598 62.2231 172.926 62.1156 173.372 62.1156C173.817 62.1156 174.145 62.2231 174.355 62.438C174.57 62.6477 174.677 62.9387 174.677 63.311C174.677 63.6675 174.57 63.9585 174.355 64.1839ZM175.29 68.8633C175.38 68.9525 175.424 69.0678 175.424 69.2094C175.424 69.3509 175.39 69.482 175.322 69.6026C175.259 69.7232 175.152 69.8254 174.999 69.9093C174.847 69.9984 174.648 70.0666 174.402 70.1138C174.155 70.161 173.854 70.1846 173.497 70.1846C173.151 70.1846 172.863 70.161 172.632 70.1138C172.402 70.0718 172.215 70.0115 172.074 69.9329C171.932 69.8543 171.83 69.7599 171.767 69.6498C171.709 69.5397 171.681 69.4191 171.681 69.288C171.681 69.0993 171.738 68.9315 171.854 68.7847C171.974 68.6326 172.126 68.5016 172.31 68.3915C172.546 68.4177 172.787 68.436 173.033 68.4465C173.28 68.457 173.518 68.4701 173.749 68.4858C173.98 68.4963 174.197 68.5147 174.402 68.5409C174.606 68.5619 174.782 68.5986 174.929 68.651C175.081 68.7034 175.201 68.7742 175.29 68.8633ZM178.527 61.8954C179.004 61.4654 179.531 61.1456 180.107 60.9359C180.684 60.7209 181.308 60.6135 181.979 60.6135C182.462 60.6135 182.892 60.6921 183.269 60.8494C183.652 61.0067 183.974 61.2269 184.236 61.51C184.504 61.7879 184.708 62.1208 184.85 62.5088C184.991 62.8968 185.062 63.3215 185.062 63.7829V68.8791H184.071C183.867 68.8791 183.709 68.8502 183.599 68.7925C183.494 68.7349 183.408 68.6143 183.34 68.4308L183.167 67.9117C182.962 68.09 182.763 68.2473 182.569 68.3836C182.38 68.5199 182.184 68.6353 181.979 68.7296C181.775 68.8188 181.555 68.8869 181.319 68.9341C181.088 68.9813 180.828 69.0049 180.54 69.0049C180.183 69.0049 179.858 68.9577 179.565 68.8633C179.271 68.7689 179.017 68.63 178.802 68.4465C178.592 68.2578 178.43 68.0244 178.314 67.7466C178.199 67.4687 178.141 67.1489 178.141 66.7871C178.141 66.4882 178.217 66.1894 178.369 65.8905C178.521 65.5917 178.781 65.3217 179.148 65.0805C179.52 64.8341 180.013 64.6322 180.627 64.4749C181.245 64.3124 182.019 64.2206 182.947 64.1997V63.7829C182.947 63.2743 182.839 62.902 182.624 62.6661C182.409 62.4249 182.1 62.3043 181.696 62.3043C181.397 62.3043 181.148 62.341 180.949 62.4144C180.75 62.4826 180.574 62.5586 180.422 62.6425C180.275 62.7211 180.136 62.7972 180.005 62.8706C179.874 62.9387 179.722 62.9728 179.549 62.9728C179.397 62.9728 179.269 62.9361 179.164 62.8627C179.064 62.7841 178.98 62.6923 178.912 62.5874L178.527 61.8954ZM179.571 67.0187C179.379 66.4904 179.865 65.8283 180.658 65.5398C181.45 65.2514 182.249 65.4459 182.441 65.9742C182.633 66.5025 182.147 67.1646 181.354 67.453C180.562 67.7415 179.763 67.547 179.571 67.0187ZM192.45 62.7762C192.513 62.729 192.576 62.6635 192.639 62.5796L193.205 61.8089C192.833 61.4314 192.414 61.143 191.947 60.9438C191.48 60.7445 190.938 60.6449 190.319 60.6449C189.669 60.6449 189.095 60.7524 188.597 60.9674C188.104 61.1771 187.69 61.4681 187.354 61.8403C187.019 62.2126 186.764 62.653 186.591 63.1616C186.418 63.6701 186.332 64.2206 186.332 64.8131C186.332 65.479 186.429 66.0714 186.623 66.5905C186.822 67.1095 187.089 67.5473 187.425 67.9039C187.76 68.2604 188.151 68.533 188.597 68.7218C189.042 68.9053 189.514 68.997 190.012 68.997C190.295 68.997 190.581 68.976 190.87 68.9341C191.158 68.8974 191.441 68.8292 191.719 68.7296C192.002 68.6248 192.275 68.4858 192.537 68.3128C192.799 68.1345 193.045 67.9117 193.276 67.6443L192.655 66.8579C192.56 66.732 192.429 66.6691 192.262 66.6691C192.172 66.6691 192.091 66.6875 192.018 66.7242C191.95 66.7556 191.879 66.7976 191.805 66.85C191.737 66.9024 191.664 66.9601 191.585 67.023C191.507 67.0859 191.412 67.1436 191.302 67.196C191.197 67.2485 191.071 67.293 190.925 67.3297C190.783 67.3612 190.613 67.3769 190.413 67.3769C189.837 67.3769 189.381 67.1567 189.045 66.7163C188.715 66.2759 188.55 65.6415 188.55 64.8131C188.55 64.4199 188.586 64.066 188.66 63.7514C188.738 63.4368 188.856 63.1694 189.014 62.9492C189.171 62.729 189.367 62.5612 189.603 62.4459C189.845 62.3253 190.128 62.265 190.453 62.265C190.71 62.265 190.925 62.2965 191.098 62.3594C191.271 62.4171 191.42 62.4826 191.546 62.556C191.672 62.6242 191.782 62.6897 191.876 62.7526C191.976 62.8103 192.078 62.8391 192.183 62.8391C192.298 62.8391 192.387 62.8181 192.45 62.7762ZM204.699 60.9359C204.123 61.1456 203.596 61.4654 203.119 61.8954L203.504 62.5874C203.572 62.6923 203.656 62.7841 203.756 62.8627C203.861 62.9361 203.989 62.9728 204.141 62.9728C204.314 62.9728 204.466 62.9387 204.597 62.8706C204.728 62.7972 204.867 62.7211 205.014 62.6425C205.166 62.5586 205.342 62.4826 205.541 62.4144C205.74 62.341 205.989 62.3043 206.288 62.3043C206.692 62.3043 207.001 62.4249 207.216 62.6661C207.431 62.902 207.539 63.2743 207.539 63.7829V64.1997C206.611 64.2206 205.837 64.3124 205.218 64.4749C204.605 64.6322 204.112 64.8341 203.74 65.0805C203.373 65.3217 203.113 65.5917 202.961 65.8905C202.809 66.1894 202.733 66.4882 202.733 66.7871C202.733 67.1489 202.791 67.4687 202.906 67.7466C203.022 68.0244 203.184 68.2578 203.394 68.4465C203.609 68.63 203.863 68.7689 204.157 68.8633C204.45 68.9577 204.775 69.0049 205.132 69.0049C205.42 69.0049 205.68 68.9813 205.911 68.9341C206.146 68.8869 206.367 68.8188 206.571 68.7296C206.776 68.6353 206.972 68.5199 207.161 68.3836C207.355 68.2473 207.554 68.09 207.759 67.9117L207.932 68.4308C208 68.6143 208.086 68.7349 208.191 68.7925C208.301 68.8502 208.459 68.8791 208.663 68.8791H209.654V63.7829C209.654 63.3215 209.583 62.8968 209.442 62.5088C209.3 62.1208 209.096 61.7879 208.828 61.51C208.566 61.2269 208.244 61.0067 207.861 60.8494C207.483 60.6921 207.054 60.6135 206.571 60.6135C205.9 60.6135 205.276 60.7209 204.699 60.9359ZM205.252 65.6113C204.46 65.8998 203.973 66.5619 204.166 67.0902C204.358 67.6185 205.156 67.813 205.949 67.5245C206.741 67.2361 207.228 66.574 207.035 66.0457C206.843 65.5174 206.045 65.3229 205.252 65.6113Z" fill="#25B679"/>
</svg>
