<svg width="164" height="42" viewBox="0 0 164 42" fill="none" xmlns="http://www.w3.org/2000/svg">
<path fill-rule="evenodd" clip-rule="evenodd" d="M0.178889 3.8912C0 4.55882 0 5.37255 0 7V35C0 36.6274 0 37.4412 0.178889 38.1088C0.664342 39.9205 2.07947 41.3357 3.8912 41.8211C4.55883 42 5.37255 42 7.00001 42H21C30.4062 42 38.3679 35.8158 41.0413 27.2916C37.7147 27.1206 35.07 24.3691 35.07 21C35.07 17.6309 37.7147 14.8794 41.0413 14.7084C38.3679 6.18415 30.4062 0 21 0H7C5.37255 0 4.55883 0 3.8912 0.178889C2.07947 0.664342 0.664342 2.07947 0.178889 3.8912ZM18.585 28.875C22.9342 28.875 26.46 25.3492 26.46 21C26.46 16.6508 22.9342 13.125 18.585 13.125C14.2358 13.125 10.71 16.6508 10.71 21C10.71 25.3492 14.2358 28.875 18.585 28.875ZM13.3271 11.9899C14.1272 11.5201 14.3949 10.4906 13.9251 9.69054C13.4552 8.89045 12.4258 8.62272 11.6257 9.09254C10.8256 9.56237 10.5579 10.5918 11.0277 11.3919C11.4975 12.192 12.527 12.4598 13.3271 11.9899ZM13.3035 32.582C14.1036 32.1122 14.3713 31.0827 13.9015 30.2826C13.4317 29.4826 12.4022 29.2148 11.6021 29.6846C10.802 30.1545 10.5343 31.1839 11.0041 31.984C11.4739 32.7841 12.5034 33.0519 13.3035 32.582ZM31.8744 19.7287C32.3442 20.5288 32.0765 21.5583 31.2764 22.0281C30.4763 22.4979 29.4468 22.2302 28.977 21.4301C28.5071 20.63 28.7749 19.6005 29.575 19.1307C30.3751 18.6609 31.4045 18.9286 31.8744 19.7287ZM41.4225 26.25C44.322 26.25 46.6725 23.8995 46.6725 21C46.6725 18.1005 44.322 15.75 41.4225 15.75C38.523 15.75 36.1725 18.1005 36.1725 21C36.1725 23.8995 38.523 26.25 41.4225 26.25Z" fill="#25B679"/>
<path fill-rule="evenodd" clip-rule="evenodd" d="M95.804 2.98004V26.1844H91.5086V2.98004H95.804ZM72.2342 19.4456C72.7944 18.0553 73.0746 16.5354 73.0746 14.8857C73.0746 13.2464 72.7944 11.7368 72.2342 10.3569C71.6843 8.97696 70.9009 7.78899 69.8842 6.79296C68.8777 5.78656 67.6638 5.00322 66.2424 4.44296C64.821 3.88269 63.244 3.60256 61.5113 3.60256H52.8271V26.1844H61.5113C63.244 26.1844 64.821 25.9043 66.2424 25.344C67.6638 24.7837 68.8777 24.0056 69.8842 23.0095C70.9009 22.0135 71.6843 20.8255 72.2342 19.4456ZM67.8143 11.6953C68.1255 12.6394 68.2812 13.7029 68.2812 14.8857C68.2812 16.0788 68.1255 17.1475 67.8143 18.0917C67.503 19.0358 67.0569 19.8399 66.4759 20.5039C65.8948 21.1576 65.1841 21.6608 64.3437 22.0135C63.5137 22.3559 62.5696 22.5271 61.5113 22.5271H57.5272V7.25985H61.5113C62.5696 7.25985 63.5137 7.43623 64.3437 7.78899C65.1841 8.14175 65.8948 8.64495 66.4759 9.2986C67.0569 9.95224 67.503 10.7511 67.8143 11.6953ZM78.32 10.4658C77.1787 10.8808 76.136 11.5137 75.1919 12.3645L75.9544 13.734C76.0893 13.9415 76.2553 14.1231 76.4525 14.2787C76.66 14.424 76.9142 14.4966 77.215 14.4966C77.5574 14.4966 77.8583 14.4292 78.1177 14.2943C78.3771 14.149 78.652 13.9986 78.9425 13.843C79.2434 13.677 79.591 13.5265 79.9852 13.3916C80.3795 13.2464 80.8723 13.1738 81.4637 13.1738C82.2626 13.1738 82.8748 13.4124 83.3002 13.8897C83.7255 14.3566 83.9382 15.0932 83.9382 16.0996V16.9244C82.1018 16.9659 80.5714 17.1475 79.3472 17.4691C78.1333 17.7804 77.158 18.1798 76.4213 18.6675C75.6951 19.1447 75.1815 19.6791 74.8806 20.2705C74.5797 20.8619 74.4293 21.4533 74.4293 22.0446C74.4293 22.7605 74.5434 23.3934 74.7717 23.9433C74.9999 24.4932 75.3215 24.9549 75.7366 25.3284C76.1619 25.6916 76.6651 25.9665 77.2462 26.1533C77.8272 26.34 78.4705 26.4334 79.176 26.4334C79.7466 26.4334 80.2602 26.3867 80.7167 26.2933C81.1836 26.1999 81.6194 26.0651 82.024 25.8887C82.4286 25.7019 82.8177 25.4737 83.1912 25.2039C83.5751 24.9342 83.9694 24.6229 84.374 24.2701L84.7164 25.2973C84.8513 25.6604 85.0225 25.8991 85.23 26.0132C85.4478 26.1273 85.7591 26.1844 86.1637 26.1844H88.1247V16.0996C88.1247 15.1866 87.9846 14.3462 87.7045 13.5784C87.4243 12.8106 87.0197 12.1518 86.4906 11.6019C85.9718 11.0416 85.3337 10.6059 84.5763 10.2946C83.8293 9.98337 82.9785 9.82774 82.024 9.82774C80.696 9.82774 79.4613 10.0404 78.32 10.4658ZM81.2522 23.2775C79.6368 23.8654 78.0294 23.5236 77.6619 22.514C77.2945 21.5044 78.3061 20.2093 79.9215 19.6214C81.5368 19.0334 83.1442 19.3753 83.5117 20.3849C83.8792 21.3945 82.8675 22.6895 81.2522 23.2775ZM102.151 10.4658C101.01 10.8808 99.9668 11.5137 99.0226 12.3645L99.7852 13.734C99.9201 13.9415 100.086 14.1231 100.283 14.2787C100.491 14.424 100.745 14.4966 101.046 14.4966C101.388 14.4966 101.689 14.4292 101.948 14.2943C102.208 14.149 102.483 13.9986 102.773 13.843C103.074 13.677 103.422 13.5265 103.816 13.3916C104.21 13.2464 104.703 13.1738 105.295 13.1738C106.093 13.1738 106.706 13.4124 107.131 13.8897C107.556 14.3566 107.769 15.0932 107.769 16.0996V16.9244C105.933 16.9659 104.402 17.1475 103.178 17.4691C101.964 17.7804 100.989 18.1798 100.252 18.6675C99.5258 19.1447 99.0123 19.6791 98.7114 20.2705C98.4105 20.8619 98.2601 21.4533 98.2601 22.0446C98.2601 22.7605 98.3742 23.3934 98.6024 23.9433C98.8307 24.4932 99.1523 24.9549 99.5673 25.3284C99.9927 25.6916 100.496 25.9665 101.077 26.1533C101.658 26.34 102.301 26.4334 103.007 26.4334C103.577 26.4334 104.091 26.3867 104.547 26.2933C105.014 26.1999 105.45 26.0651 105.855 25.8887C106.259 25.7019 106.648 25.4737 107.022 25.2039C107.406 24.9342 107.8 24.6229 108.205 24.2701L108.547 25.2973C108.682 25.6604 108.853 25.8991 109.061 26.0132C109.279 26.1273 109.59 26.1844 109.995 26.1844H111.955V16.0996C111.955 15.1866 111.815 14.3462 111.535 13.5784C111.255 12.8106 110.85 12.1518 110.321 11.6019C109.803 11.0416 109.165 10.6059 108.407 10.2946C107.66 9.98337 106.809 9.82774 105.855 9.82774C104.527 9.82774 103.292 10.0404 102.151 10.4658ZM101.512 22.5157C101.88 23.5253 103.487 23.8672 105.102 23.2792C106.718 22.6913 107.729 21.3962 107.362 20.3866C106.994 19.377 105.387 19.0352 103.772 19.6231C102.156 20.2111 101.145 21.5061 101.512 22.5157ZM129.517 2.98004V26.1844H126.872C126.322 26.1844 125.969 25.9354 125.813 25.4374L125.455 24.0367C125.134 24.3895 124.791 24.7111 124.428 25.0016C124.075 25.2921 123.692 25.5463 123.277 25.7642C122.862 25.9717 122.415 26.1325 121.938 26.2466C121.461 26.3608 120.942 26.4178 120.382 26.4178C119.521 26.4178 118.732 26.2363 118.016 25.8731C117.3 25.51 116.678 24.9809 116.149 24.2857C115.63 23.5802 115.225 22.719 114.935 21.7023C114.644 20.6855 114.499 19.5234 114.499 18.2162C114.499 17.023 114.66 15.9128 114.981 14.8857C115.313 13.8585 115.78 12.9714 116.382 12.2244C116.984 11.4774 117.71 10.8912 118.561 10.4658C119.412 10.0404 120.356 9.82774 121.393 9.82774C122.265 9.82774 122.996 9.95743 123.588 10.2168C124.19 10.4762 124.734 10.829 125.222 11.2751V2.98004H129.517ZM135.86 10.4658C134.719 10.8808 133.676 11.5137 132.732 12.3645L133.495 13.734C133.63 13.9415 133.796 14.1231 133.993 14.2787C134.2 14.424 134.455 14.4966 134.755 14.4966C135.098 14.4966 135.399 14.4292 135.658 14.2943C135.917 14.149 136.192 13.9986 136.483 13.843C136.784 13.677 137.131 13.5265 137.526 13.3916C137.92 13.2464 138.413 13.1738 139.004 13.1738C139.803 13.1738 140.415 13.4124 140.841 13.8897C141.266 14.3566 141.479 15.0932 141.479 16.0996V16.9244C139.642 16.9659 138.112 17.1475 136.888 17.4691C135.674 17.7804 134.698 18.1798 133.962 18.6675C133.235 19.1447 132.722 19.6791 132.421 20.2705C132.12 20.8619 131.97 21.4533 131.97 22.0446C131.97 22.7605 132.084 23.3934 132.312 23.9433C132.54 24.4932 132.862 24.9549 133.277 25.3284C133.702 25.6916 134.206 25.9665 134.787 26.1533C135.368 26.34 136.011 26.4334 136.716 26.4334C137.287 26.4334 137.801 26.3867 138.257 26.2933C138.724 26.1999 139.16 26.0651 139.564 25.8887C139.969 25.7019 140.358 25.4737 140.732 25.2039C141.116 24.9342 141.51 24.6229 141.914 24.2701L142.257 25.2973C142.392 25.6604 142.563 25.8991 142.77 26.0132C142.988 26.1273 143.3 26.1844 143.704 26.1844H145.665V16.0996C145.665 15.1866 145.525 14.3462 145.245 13.5784C144.965 12.8106 144.56 12.1518 144.031 11.6019C143.512 11.0416 142.874 10.6059 142.117 10.2946C141.37 9.98337 140.519 9.82774 139.564 9.82774C138.236 9.82774 137.002 10.0404 135.86 10.4658ZM135.206 22.5157C135.573 23.5253 137.181 23.8672 138.796 23.2792C140.412 22.6913 141.423 21.3962 141.056 20.3866C140.688 19.377 139.081 19.0352 137.466 19.6231C135.85 20.2111 134.839 21.5061 135.206 22.5157ZM153.002 12.0065C153.324 11.6953 153.656 11.41 153.998 11.1506C154.351 10.8912 154.719 10.6681 155.103 10.4814C155.497 10.2946 155.918 10.1494 156.364 10.0456C156.82 9.94186 157.313 9.88999 157.842 9.88999C158.714 9.88999 159.487 10.0404 160.161 10.3413C160.835 10.6422 161.401 11.0624 161.857 11.6019C162.324 12.1414 162.672 12.7847 162.9 13.5317C163.139 14.2787 163.258 15.0984 163.258 15.9907V26.1844H158.978V15.9907C158.978 15.0984 158.771 14.4084 158.356 13.9208C157.941 13.4228 157.329 13.1738 156.519 13.1738C155.918 13.1738 155.352 13.3035 154.823 13.5628C154.294 13.8222 153.791 14.1854 153.313 14.6522V26.1844H149.018V10.139H151.664C152.203 10.139 152.561 10.388 152.737 10.886L153.002 12.0065ZM121.379 22.3182C123.269 22.3182 124.802 20.4021 124.802 18.0384C124.802 15.6747 123.269 13.7586 121.379 13.7586C119.488 13.7586 117.955 15.6747 117.955 18.0384C117.955 20.4021 119.488 22.3182 121.379 22.3182Z" fill="#25B679"/>
<path fill-rule="evenodd" clip-rule="evenodd" d="M106.959 33.5033C107.042 33.4291 107.127 33.362 107.216 33.3021C107.307 33.2393 107.403 33.1866 107.502 33.1438C107.605 33.0981 107.714 33.0639 107.828 33.041C107.945 33.0154 108.07 33.0025 108.204 33.0025C108.444 33.0025 108.657 33.0439 108.842 33.1266C109.027 33.2094 109.183 33.3249 109.309 33.4733C109.437 33.6217 109.533 33.7986 109.595 34.004C109.661 34.2094 109.694 34.4348 109.694 34.6802V37.4835H108.517V34.6802C108.517 34.4348 108.46 34.2451 108.346 34.111C108.231 33.974 108.063 33.9056 107.841 33.9056C107.675 33.9056 107.52 33.9412 107.374 34.0126C107.229 34.0839 107.09 34.1838 106.959 34.3122V37.4835H105.778V31.1023H106.959V33.5033ZM58.1641 35.6303C58.3182 35.248 58.3952 34.83 58.3952 34.3763C58.3952 33.9255 58.3182 33.5104 58.1641 33.1309C58.0129 32.7514 57.7974 32.4248 57.5178 32.1508C57.2411 31.8741 56.9072 31.6587 56.5163 31.5046C56.1255 31.3505 55.6918 31.2735 55.2153 31.2735H52.8271V37.4835H55.2153C55.6918 37.4835 56.1255 37.4065 56.5163 37.2524C56.9072 37.0983 57.2411 36.8843 57.5178 36.6104C57.7974 36.3365 58.0129 36.0098 58.1641 35.6303ZM56.9486 33.499C57.0342 33.7586 57.077 34.0511 57.077 34.3763C57.077 34.7045 57.0342 34.9983 56.9486 35.258C56.863 35.5176 56.7403 35.7388 56.5805 35.9214C56.4208 36.1011 56.2253 36.2395 55.9942 36.3365C55.766 36.4307 55.5063 36.4777 55.2153 36.4777H54.1197V32.2792H55.2153C55.5063 32.2792 55.766 32.3277 55.9942 32.4248C56.2253 32.5218 56.4208 32.6601 56.5805 32.8399C56.7403 33.0196 56.863 33.2393 56.9486 33.499ZM59.8377 33.1609C59.5238 33.275 59.2371 33.4491 58.9774 33.683L59.1872 34.0596C59.2242 34.1167 59.2699 34.1666 59.3241 34.2094C59.3812 34.2494 59.4511 34.2694 59.5338 34.2694C59.628 34.2694 59.7107 34.2508 59.782 34.2137C59.8534 34.1738 59.929 34.1324 60.0089 34.0896C60.0916 34.0439 60.1872 34.0026 60.2956 33.9655C60.404 33.9255 60.5396 33.9056 60.7022 33.9056C60.9219 33.9056 61.0902 33.9712 61.2072 34.1024C61.3242 34.2308 61.3827 34.4334 61.3827 34.7102V34.937C60.8777 34.9484 60.4568 34.9983 60.1202 35.0868C59.7863 35.1724 59.5181 35.2822 59.3155 35.4163C59.1158 35.5476 58.9746 35.6945 58.8918 35.8572C58.8091 36.0198 58.7677 36.1824 58.7677 36.3451C58.7677 36.5419 58.7991 36.716 58.8619 36.8672C58.9247 37.0184 59.0131 37.1454 59.1272 37.2481C59.2442 37.348 59.3826 37.4236 59.5424 37.4749C59.7022 37.5263 59.8791 37.552 60.0731 37.552C60.23 37.552 60.3712 37.5391 60.4968 37.5134C60.6252 37.4878 60.745 37.4507 60.8563 37.4022C60.9676 37.3508 61.0746 37.288 61.1773 37.2139C61.2828 37.1397 61.3913 37.0541 61.5025 36.9571L61.5967 37.2395C61.6338 37.3394 61.6809 37.405 61.7379 37.4364C61.7978 37.4678 61.8834 37.4835 61.9947 37.4835H62.534V34.7102C62.534 34.4591 62.4955 34.228 62.4184 34.0168C62.3414 33.8057 62.2301 33.6245 62.0846 33.4733C61.9419 33.3192 61.7665 33.1994 61.5582 33.1138C61.3527 33.0282 61.1188 32.9854 60.8563 32.9854C60.4911 32.9854 60.1515 33.0439 59.8377 33.1609ZM60.1835 35.6663C59.7522 35.8233 59.4875 36.1836 59.5921 36.4711C59.6968 36.7586 60.1312 36.8644 60.5624 36.7075C60.9937 36.5505 61.2585 36.1902 61.1538 35.9027C61.0492 35.6152 60.6148 35.5094 60.1835 35.6663ZM66.1994 33.9783C66.168 34.0268 66.1352 34.0625 66.1009 34.0853C66.0695 34.1053 66.0253 34.1153 65.9683 34.1153C65.9112 34.1153 65.8527 34.101 65.7928 34.0725C65.7329 34.044 65.6658 34.014 65.5916 33.9826C65.5174 33.9484 65.4318 33.917 65.3348 33.8885C65.2407 33.8599 65.1308 33.8457 65.0053 33.8457C64.8141 33.8457 64.6658 33.8856 64.5602 33.9655C64.4546 34.0425 64.4018 34.1452 64.4018 34.2736C64.4018 34.3621 64.4318 34.4363 64.4917 34.4962C64.5516 34.5561 64.6301 34.6089 64.7271 34.6545C64.827 34.6973 64.9397 34.7387 65.0652 34.7787C65.1908 34.8157 65.3191 34.8571 65.4504 34.9028C65.5845 34.9484 65.7143 35.0012 65.8399 35.0611C65.9654 35.121 66.0767 35.1966 66.1737 35.2879C66.2735 35.3764 66.3534 35.4848 66.4134 35.6132C66.4733 35.7388 66.5032 35.8914 66.5032 36.0712C66.5032 36.2851 66.4633 36.4834 66.3834 36.666C66.3064 36.8458 66.1922 37.0013 66.041 37.1325C65.8898 37.2638 65.7015 37.3665 65.4761 37.4407C65.2507 37.5149 64.991 37.552 64.6971 37.552C64.5459 37.552 64.3961 37.5377 64.2478 37.5092C64.0994 37.4835 63.9582 37.4464 63.8241 37.3979C63.69 37.3465 63.5644 37.288 63.4474 37.2224C63.3305 37.1568 63.2292 37.0855 63.1436 37.0084L63.4175 36.5676C63.4489 36.5163 63.4874 36.4763 63.533 36.4478C63.5815 36.4192 63.6429 36.405 63.7171 36.405C63.7884 36.405 63.854 36.4235 63.9139 36.4606C63.9739 36.4949 64.0409 36.5334 64.1151 36.5762C64.1893 36.6161 64.2763 36.6546 64.3762 36.6917C64.4789 36.726 64.6058 36.7431 64.7571 36.7431C64.8712 36.7431 64.9696 36.7302 65.0524 36.7046C65.1351 36.6789 65.2022 36.6446 65.2535 36.6018C65.3049 36.5562 65.342 36.5063 65.3648 36.4521C65.3905 36.395 65.4033 36.3365 65.4033 36.2766C65.4033 36.1796 65.3719 36.1011 65.3092 36.0412C65.2492 35.9784 65.1694 35.9242 65.0695 35.8786C64.9725 35.8329 64.8598 35.7915 64.7314 35.7544C64.603 35.7174 64.4717 35.676 64.3376 35.6303C64.2064 35.5847 64.0766 35.5305 63.9482 35.4677C63.8226 35.4049 63.7099 35.3265 63.6101 35.2323C63.5131 35.1353 63.4332 35.0169 63.3704 34.8771C63.3105 34.7373 63.2805 34.5675 63.2805 34.3678C63.2805 34.1852 63.3162 34.0126 63.3875 33.8499C63.4589 33.6844 63.5659 33.5389 63.7085 33.4134C63.8512 33.2879 64.0281 33.188 64.2392 33.1138C64.4532 33.0396 64.7 33.0025 64.9796 33.0025C65.2935 33.0025 65.5788 33.0539 65.8356 33.1566C66.0924 33.2593 66.3035 33.3934 66.469 33.5589L66.1994 33.9783ZM68.2356 37.4664C68.3896 37.5234 68.5665 37.552 68.7662 37.552C68.9859 37.552 69.1985 37.5192 69.4039 37.4535C69.6094 37.3879 69.7934 37.2909 69.956 37.1625L69.6008 36.5976C69.578 36.5605 69.5552 36.5348 69.5323 36.5205C69.5095 36.5034 69.481 36.4949 69.4467 36.4949C69.4211 36.4949 69.3954 36.502 69.3697 36.5163C69.3469 36.5277 69.3212 36.5419 69.2927 36.5591C69.2641 36.5733 69.2299 36.5876 69.1899 36.6018C69.15 36.6133 69.1015 36.619 69.0444 36.619C68.936 36.619 68.8518 36.5833 68.7919 36.512C68.7349 36.4406 68.7063 36.3436 68.7063 36.2209V33.9184H69.8448V33.0967H68.7063V31.7528H68.09C67.9474 31.7528 67.8604 31.817 67.829 31.9454L67.5893 33.0881L66.8831 33.2165V33.6787C66.8831 33.7586 66.9045 33.8185 66.9473 33.8585C66.993 33.8984 67.0472 33.9184 67.11 33.9184H67.5251V36.298C67.5251 36.492 67.5522 36.666 67.6064 36.8201C67.6606 36.9742 67.7405 37.1054 67.8461 37.2139C67.9517 37.3223 68.0815 37.4065 68.2356 37.4664ZM74.3508 33.071V37.4835H73.6232C73.472 37.4835 73.375 37.415 73.3322 37.2781L73.2552 36.9699C73.1667 37.0555 73.0754 37.134 72.9813 37.2053C72.8871 37.2766 72.7858 37.338 72.6774 37.3893C72.5718 37.4407 72.4563 37.4806 72.3307 37.5092C72.208 37.5377 72.0739 37.552 71.9284 37.552C71.6888 37.552 71.4748 37.5106 71.2865 37.4279C71.101 37.3451 70.9455 37.2296 70.82 37.0812C70.6944 36.9328 70.5988 36.7559 70.5332 36.5505C70.4676 36.3451 70.4348 36.1197 70.4348 35.8743V33.071H71.616V35.8743C71.616 36.1197 71.6716 36.3108 71.7829 36.4478C71.897 36.5819 72.0654 36.6489 72.2879 36.6489C72.4534 36.6489 72.6089 36.6133 72.7544 36.5419C72.8999 36.4677 73.0383 36.3679 73.1696 36.2423V33.071H74.3508ZM76.9179 33.2037C76.7353 33.3492 76.5741 33.5475 76.4343 33.7986L76.3701 33.3578C76.3501 33.2522 76.3173 33.178 76.2716 33.1352C76.226 33.0924 76.1432 33.071 76.0234 33.071H75.3258V37.4835H76.507V34.7829C76.5527 34.6774 76.6012 34.5832 76.6525 34.5005C76.7068 34.4177 76.7667 34.3478 76.8323 34.2908C76.8979 34.2337 76.9721 34.1895 77.0548 34.1581C77.1404 34.1267 77.2374 34.111 77.3459 34.111C77.4201 34.111 77.4999 34.1181 77.5855 34.1324C77.6711 34.1438 77.7368 34.1495 77.7824 34.1495C77.8338 34.1495 77.8737 34.1395 77.9022 34.1196C77.9336 34.0967 77.9565 34.0568 77.9707 33.9997L78.0478 33.1266C77.9222 33.0325 77.7596 32.9854 77.5599 32.9854C77.3145 32.9854 77.1005 33.0582 76.9179 33.2037ZM82.6225 37.4835H81.4883C81.4027 37.4835 81.3328 37.4621 81.2786 37.4193C81.2273 37.3765 81.1859 37.3266 81.1545 37.2695L80.2857 35.8186C80.26 35.9157 80.2229 36.0012 80.1744 36.0754L79.4297 37.2695C79.3955 37.3237 79.3527 37.3736 79.3013 37.4193C79.2528 37.4621 79.1901 37.4835 79.113 37.4835H78.0602L79.5581 35.2066L78.1201 33.071H79.2543C79.3399 33.071 79.4026 33.0824 79.4426 33.1052C79.4825 33.1281 79.5182 33.1652 79.5496 33.2165L80.4141 34.616C80.4284 34.5675 80.4469 34.519 80.4697 34.4705C80.4926 34.4191 80.5197 34.3692 80.5511 34.3207L81.2144 33.2379C81.2829 33.1266 81.3713 33.071 81.4798 33.071H82.5626L81.1245 35.1553L82.6225 37.4835ZM85.8006 33.1609C85.5295 33.0553 85.2285 33.0025 84.8975 33.0025C84.5637 33.0025 84.2598 33.0553 83.9859 33.1609C83.7149 33.2665 83.4823 33.4177 83.2883 33.6145C83.0943 33.8086 82.9431 34.0454 82.8347 34.325C82.7291 34.6046 82.6763 34.9199 82.6763 35.2708C82.6763 35.6218 82.7291 35.9385 82.8347 36.2209C82.9431 36.5006 83.0943 36.7388 83.2883 36.9357C83.4823 37.1325 83.7149 37.2838 83.9859 37.3893C84.2598 37.4949 84.5637 37.5477 84.8975 37.5477C85.2285 37.5477 85.5295 37.4949 85.8006 37.3893C86.0716 37.2838 86.3042 37.1325 86.4982 36.9357C86.6922 36.7388 86.842 36.5006 86.9476 36.2209C87.0531 35.9385 87.1059 35.6218 87.1059 35.2708C87.1059 34.9199 87.0531 34.6046 86.9476 34.325C86.842 34.0454 86.6922 33.8086 86.4982 33.6145C86.3042 33.4177 86.0716 33.2665 85.8006 33.1609ZM85.6465 36.3151C85.4839 36.5462 85.2342 36.6618 84.8975 36.6618C84.5523 36.6618 84.2984 36.5462 84.1357 36.3151C83.9731 36.0811 83.8918 35.7345 83.8918 35.2751C83.8918 34.8186 83.9731 34.4748 84.1357 34.2437C84.2984 34.0097 84.5523 33.8927 84.8975 33.8927C85.2342 33.8927 85.4839 34.0097 85.6465 34.2437C85.8091 34.4748 85.8905 34.8186 85.8905 35.2751C85.8905 35.7345 85.8091 36.0811 85.6465 36.3151ZM88.9432 33.5846C89.0317 33.499 89.123 33.4205 89.2171 33.3492C89.3142 33.2779 89.4154 33.2165 89.521 33.1652C89.6294 33.1138 89.745 33.0739 89.8677 33.0453C89.9932 33.0168 90.1287 33.0025 90.2743 33.0025C90.5139 33.0025 90.7265 33.0439 90.9119 33.1266C91.0974 33.2094 91.2529 33.3249 91.3784 33.4733C91.5068 33.6217 91.6024 33.7986 91.6652 34.004C91.7308 34.2094 91.7636 34.4348 91.7636 34.6802V37.4835H90.5867V34.6802C90.5867 34.4348 90.5296 34.2451 90.4155 34.111C90.3014 33.974 90.133 33.9056 89.9105 33.9056C89.745 33.9056 89.5895 33.9412 89.444 34.0126C89.2985 34.0839 89.1601 34.1838 89.0288 34.3122V37.4835H87.8476V33.071H88.5752C88.7235 33.071 88.822 33.1395 88.8705 33.2764L88.9432 33.5846ZM96.6373 33.6488V33.2165H95.3448C95.0567 33.0682 94.7243 32.994 94.3476 32.994C94.0937 32.994 93.8583 33.0268 93.6415 33.0924C93.4246 33.158 93.2363 33.2536 93.0765 33.3792C92.9168 33.5018 92.7912 33.6516 92.6999 33.8285C92.6115 34.0054 92.5672 34.2037 92.5672 34.4234C92.5672 34.6916 92.6329 34.927 92.7641 35.1296C92.8954 35.3293 93.0737 35.4891 93.2991 35.6089C93.0994 35.7059 92.951 35.8272 92.854 35.9727C92.7598 36.1182 92.7127 36.2566 92.7127 36.3879C92.7127 36.5505 92.7456 36.6832 92.8112 36.7859C92.8797 36.8857 92.9695 36.9671 93.0808 37.0298C92.8697 37.1126 92.7042 37.2224 92.5844 37.3594C92.4645 37.4963 92.4046 37.6632 92.4046 37.8601C92.4046 38.0113 92.4445 38.1568 92.5244 38.2967C92.6043 38.4365 92.7256 38.5591 92.8882 38.6647C93.0537 38.7731 93.2606 38.8587 93.5088 38.9215C93.7599 38.9871 94.0552 39.0199 94.3947 39.0199C94.7371 39.0199 95.0424 38.9757 95.3106 38.8873C95.5788 38.7988 95.8042 38.6818 95.9868 38.5363C96.1723 38.3908 96.3135 38.2253 96.4105 38.0399C96.5075 37.8544 96.556 37.6632 96.556 37.4664C96.556 37.2552 96.5146 37.0826 96.4319 36.9485C96.352 36.8144 96.245 36.7074 96.1109 36.6275C95.9797 36.5448 95.8285 36.4863 95.6573 36.4521C95.4889 36.415 95.3163 36.3893 95.1394 36.375C94.9654 36.3608 94.7927 36.3522 94.6215 36.3493C94.4532 36.3436 94.302 36.3336 94.1679 36.3194C94.0366 36.3023 93.9296 36.2752 93.8469 36.2381C93.767 36.201 93.7271 36.1411 93.7271 36.0583C93.7271 35.9699 93.787 35.8885 93.9068 35.8144C94.0438 35.84 94.1907 35.8529 94.3476 35.8529C94.5959 35.8529 94.827 35.8201 95.041 35.7544C95.255 35.686 95.4404 35.5904 95.5973 35.4677C95.7543 35.3422 95.877 35.1924 95.9654 35.0183C96.0567 34.8414 96.1024 34.6431 96.1024 34.4234C96.1024 34.2636 96.0781 34.1139 96.0296 33.974L96.3891 33.9013C96.4776 33.8813 96.5403 33.8514 96.5774 33.8114C96.6174 33.7715 96.6373 33.7173 96.6373 33.6488ZM94.8826 34.9284C94.7685 35.0511 94.5902 35.1125 94.3476 35.1125C94.108 35.1125 93.9296 35.0511 93.8127 34.9284C93.6985 34.8029 93.6415 34.6445 93.6415 34.4534C93.6415 34.2508 93.6985 34.0925 93.8127 33.9783C93.9268 33.8613 94.1051 33.8029 94.3476 33.8029C94.5902 33.8029 94.7685 33.8613 94.8826 33.9783C94.9996 34.0925 95.0581 34.2508 95.0581 34.4534C95.0581 34.6474 94.9996 34.8058 94.8826 34.9284ZM95.3919 37.4749C95.4404 37.5234 95.4647 37.5862 95.4647 37.6632C95.4647 37.7403 95.4461 37.8116 95.409 37.8772C95.3748 37.9429 95.3163 37.9985 95.2336 38.0441C95.1508 38.0926 95.0424 38.1297 94.9083 38.1554C94.7742 38.1811 94.6101 38.1939 94.4161 38.1939C94.2278 38.1939 94.0709 38.1811 93.9453 38.1554C93.8198 38.1326 93.7185 38.0998 93.6415 38.057C93.5644 38.0142 93.5088 37.9628 93.4746 37.9029C93.4432 37.843 93.4275 37.7774 93.4275 37.706C93.4275 37.6033 93.4589 37.512 93.5216 37.4321C93.5873 37.3494 93.67 37.2781 93.7699 37.2181C93.8983 37.2324 94.0295 37.2424 94.1636 37.2481C94.2977 37.2538 94.4275 37.2609 94.5531 37.2695C94.6786 37.2752 94.797 37.2852 94.9083 37.2995C95.0196 37.3109 95.1151 37.3308 95.195 37.3594C95.2778 37.3879 95.3434 37.4264 95.3919 37.4749ZM97.1531 33.683C97.4127 33.4491 97.6994 33.275 98.0133 33.1609C98.3271 33.0439 98.6667 32.9854 99.0319 32.9854C99.2944 32.9854 99.5284 33.0282 99.7338 33.1138C99.9421 33.1994 100.118 33.3192 100.26 33.4733C100.406 33.6245 100.517 33.8057 100.594 34.0168C100.671 34.228 100.71 34.4591 100.71 34.7102V37.4835H100.17C100.059 37.4835 99.9735 37.4678 99.9135 37.4364C99.8565 37.405 99.8094 37.3394 99.7723 37.2395L99.6781 36.9571C99.5669 37.0541 99.4584 37.1397 99.3529 37.2139C99.2502 37.288 99.1432 37.3508 99.0319 37.4022C98.9206 37.4507 98.8008 37.4878 98.6724 37.5134C98.5468 37.5391 98.4056 37.552 98.2487 37.552C98.0547 37.552 97.8778 37.5263 97.718 37.4749C97.5582 37.4236 97.4198 37.348 97.3028 37.2481C97.1887 37.1454 97.1003 37.0184 97.0375 36.8672C96.9747 36.716 96.9433 36.5419 96.9433 36.3451C96.9433 36.1824 96.9847 36.0198 97.0675 35.8572C97.1502 35.6945 97.2914 35.5476 97.4912 35.4163C97.6937 35.2822 97.9619 35.1724 98.2958 35.0868C98.6324 34.9983 99.0533 34.9484 99.5583 34.937V34.7102C99.5583 34.4334 99.4998 34.2308 99.3828 34.1024C99.2659 33.9712 99.0975 33.9056 98.8778 33.9056C98.7152 33.9056 98.5797 33.9255 98.4712 33.9655C98.3628 34.0026 98.2672 34.0439 98.1845 34.0896C98.1046 34.1324 98.029 34.1738 97.9577 34.2137C97.8863 34.2508 97.8036 34.2694 97.7094 34.2694C97.6267 34.2694 97.5568 34.2494 97.4997 34.2094C97.4455 34.1666 97.3999 34.1167 97.3628 34.0596L97.1531 33.683ZM97.7214 36.4711C97.6167 36.1836 97.8815 35.8233 98.3128 35.6663C98.744 35.5094 99.1784 35.6152 99.2831 35.9027C99.3877 36.1902 99.123 36.5505 98.6917 36.7075C98.2604 36.8644 97.826 36.7586 97.7214 36.4711ZM104.73 34.1624C104.764 34.1367 104.799 34.101 104.833 34.0554L105.141 33.6359C104.938 33.4305 104.71 33.2736 104.456 33.1652C104.202 33.0567 103.907 33.0025 103.57 33.0025C103.217 33.0025 102.904 33.061 102.633 33.178C102.365 33.2921 102.139 33.4505 101.957 33.6531C101.774 33.8556 101.636 34.0953 101.542 34.3721C101.448 34.6488 101.401 34.9484 101.401 35.2708C101.401 35.6332 101.453 35.9556 101.559 36.2381C101.667 36.5205 101.813 36.7588 101.995 36.9528C102.178 37.1468 102.391 37.2952 102.633 37.3979C102.876 37.4978 103.132 37.5477 103.403 37.5477C103.558 37.5477 103.713 37.5363 103.87 37.5134C104.027 37.4935 104.181 37.4564 104.332 37.4022C104.486 37.3451 104.635 37.2695 104.777 37.1753C104.92 37.0783 105.054 36.9571 105.18 36.8116L104.841 36.3836C104.79 36.3151 104.719 36.2809 104.627 36.2809C104.579 36.2809 104.535 36.2908 104.495 36.3108C104.458 36.3279 104.419 36.3508 104.379 36.3793C104.342 36.4078 104.302 36.4392 104.259 36.4735C104.217 36.5077 104.165 36.5391 104.105 36.5676C104.048 36.5961 103.98 36.6204 103.9 36.6404C103.823 36.6575 103.73 36.666 103.622 36.666C103.308 36.666 103.06 36.5462 102.877 36.3065C102.697 36.0669 102.607 35.7216 102.607 35.2708C102.607 35.0568 102.627 34.8642 102.667 34.6931C102.71 34.5219 102.774 34.3763 102.86 34.2565C102.946 34.1367 103.053 34.0454 103.181 33.9826C103.312 33.917 103.466 33.8842 103.643 33.8842C103.783 33.8842 103.9 33.9013 103.994 33.9355C104.088 33.9669 104.17 34.0026 104.238 34.0425C104.306 34.0796 104.366 34.1153 104.418 34.1495C104.472 34.1809 104.528 34.1966 104.585 34.1966C104.647 34.1966 104.696 34.1852 104.73 34.1624ZM111.396 33.1609C111.082 33.275 110.795 33.4491 110.536 33.683L110.746 34.0596C110.783 34.1167 110.828 34.1666 110.882 34.2094C110.94 34.2494 111.009 34.2694 111.092 34.2694C111.186 34.2694 111.269 34.2508 111.34 34.2137C111.412 34.1738 111.487 34.1324 111.567 34.0896C111.65 34.0439 111.746 34.0026 111.854 33.9655C111.962 33.9255 112.098 33.9056 112.261 33.9056C112.48 33.9056 112.649 33.9712 112.766 34.1024C112.883 34.2308 112.941 34.4334 112.941 34.7102V34.937C112.436 34.9484 112.015 34.9983 111.679 35.0868C111.345 35.1724 111.077 35.2822 110.874 35.4163C110.674 35.5476 110.533 35.6945 110.45 35.8572C110.367 36.0198 110.326 36.1824 110.326 36.3451C110.326 36.5419 110.358 36.716 110.42 36.8672C110.483 37.0184 110.571 37.1454 110.686 37.2481C110.803 37.348 110.941 37.4236 111.101 37.4749C111.261 37.5263 111.437 37.552 111.631 37.552C111.788 37.552 111.93 37.5391 112.055 37.5134C112.184 37.4878 112.303 37.4507 112.415 37.4022C112.526 37.3508 112.633 37.288 112.736 37.2139C112.841 37.1397 112.95 37.0541 113.061 36.9571L113.155 37.2395C113.192 37.3394 113.239 37.405 113.296 37.4364C113.356 37.4678 113.442 37.4835 113.553 37.4835H114.092V34.7102C114.092 34.4591 114.054 34.228 113.977 34.0168C113.9 33.8057 113.788 33.6245 113.643 33.4733C113.5 33.3192 113.325 33.1994 113.117 33.1138C112.911 33.0282 112.677 32.9854 112.415 32.9854C112.049 32.9854 111.71 33.0439 111.396 33.1609ZM111.697 35.7052C111.266 35.8622 111.001 36.2225 111.106 36.51C111.21 36.7975 111.645 36.9033 112.076 36.7464C112.507 36.5894 112.772 36.2291 112.667 35.9416C112.563 35.6541 112.128 35.5483 111.697 35.7052Z" fill="#25B679"/>
</svg>
