<svg width="1324" height="709" viewBox="0 0 1324 709" fill="none" xmlns="http://www.w3.org/2000/svg">
<path d="M1218.07 480.996L1218.39 481.852L1216.65 487.117L1215.9 488.135L1214.7 488.327L1212.73 487.833L1211.24 487.249L1209.59 486.265L1208.83 485.077L1210.08 483.85L1212.01 483.765L1213.34 483.223L1216.15 481.488L1218.07 480.996ZM1235.6 458.482L1236.1 458.76L1236.53 459.411L1236.03 460.31L1234.95 460.537L1233.73 460.37L1232.81 460.058L1232.2 459.946L1231.76 460.002L1230.87 460.236L1227.83 460.027L1224.8 459.42L1221.99 459.552L1219.6 461.529L1218.16 464.158L1217.33 465.283L1216.08 466.261L1212.03 468.231L1210.97 468.492L1209.41 467.932L1208.93 466.672L1208.95 463.278L1208.41 461.598L1207.32 459.723L1205.96 458.748L1204.56 459.783L1204.09 461.366L1203.91 462.799L1203.24 463.752L1201.34 463.906L1197.72 463.312L1195.96 462.752L1194.33 461.901L1192.93 460.797L1192.31 459.574L1191.57 458.581L1188.12 457.699L1185.7 455.828L1184.15 455.738L1181.73 455.948L1180.46 455.854L1179.4 455.473L1178.6 454.701L1177.91 453.832L1177.13 453.317L1176.04 453.591L1174.84 455.103L1174.15 456.936L1173.07 458.336L1170.63 458.537L1161.69 457.475L1157.22 458.108L1154.43 460.445L1152.85 460.317L1146.02 460.826L1135.05 463.605L1131.75 463.828L1128.5 463.657L1125.4 461.822L1124.03 458.305L1123 454.473L1120.95 451.714L1119.25 451.127L1117.79 451.256L1116.34 451.624L1114.65 451.749L1113.04 451.363L1109.2 449.958L1110.24 447.073L1110.03 446.721L1109.37 446.07L1109.2 445.941L1109.24 445.97L1108.23 444.747L1108.09 444.524L1107.97 444.134L1107.85 442.387L1109.06 440.777L1111.35 439.557L1116.65 438.534L1117.39 438.285L1118.16 437.448L1120.02 434.852L1121.06 433.992L1122.13 433.596L1123.27 433.334L1124.43 432.882L1125.42 432.19L1128.12 429.428L1132.8 426.264L1133.95 425.39L1135.05 424.676L1135.7 424.413L1136.97 424.177L1137.23 423.855L1137.35 423.463L1137.63 423.118L1138.82 422.498L1138.83 422.461L1140.81 421.438L1141.63 420.67L1142.34 419.815L1143.19 419.05L1144.49 418.537L1145.53 418.472L1147.67 418.652L1148.69 418.537L1152.31 415.857L1153.86 415.864L1155.07 416.282L1155.69 416.64L1156.19 416.998L1158.65 417.284L1167.36 416.895L1162.46 422.397L1162.89 422.755L1165.9 423.03L1166.48 423.259L1168.66 425.136L1169.23 425.408L1170.03 425.619L1171.43 425.848L1172.29 426.11L1173.86 427.16L1177.35 428.731L1178.45 429.016L1180.21 428.727L1185.25 424.818L1187.67 421.751L1189.18 420.704L1196.01 417.645L1202.38 415.898L1204.67 418.748L1206.35 421.42L1207.12 422.318L1207.44 422.479L1207.57 421.008L1208.04 420.756L1208.85 420.782L1210.93 421.66L1211.94 421.958L1212.71 422.032L1213.09 421.801L1213.94 421.7L1215.18 421.775L1219.2 422.91L1220.06 423.316L1220.7 423.929L1221.39 424.9L1224.49 428.385L1225.11 428.656L1225.82 428.851L1227.65 429.095L1229.19 428.865L1231.39 428.749L1234.98 429.74L1239.63 430.553L1240.93 430.443L1241.77 429.585L1242.54 429.022L1243.62 429.668L1245.13 431.477L1245.68 431.851L1246.56 431.929L1250.55 432.917L1251.64 433.712L1251.72 434.133L1251.75 434.593L1251.69 435.582L1251.41 437.135L1251.2 438.624L1251.38 439.771L1252.05 441.682L1252.14 442.063L1252.15 442.094L1248.64 442.245L1247.34 442.524L1242.21 444.854L1241.51 445.712L1241.05 447.261L1239.93 449.58L1237.9 451.247L1231.24 454.037L1230.81 455.21L1231.35 456.453L1232.8 457.318L1235.03 458.174L1235.6 458.482ZM1171.22 476.681L1171.6 476.566L1172.45 475.999L1172.86 475.807L1174.82 475.371L1175.79 475.521L1176.38 476.289L1175.86 477.581L1172.3 479.633L1171.05 480.644L1171.23 482.775L1174.62 485.778L1174.46 488.316L1173.64 489.316L1172.58 489.644L1169.99 489.691L1166.35 490.495L1165.21 490.41L1164.31 489.725L1164.12 488.819L1163.75 488.112L1162.29 488.052L1161.43 488.558L1160.37 489.417L1159.28 489.97L1158.31 489.565L1158.19 487.471L1161.48 483.207L1161.13 480.803L1160.24 480.22L1158.19 479.857L1157.17 479.414L1156.3 478.382L1154.4 474.94L1153.98 473.608L1154.06 472.238L1154.51 470.782L1155.84 468.206L1158.26 467.117L1160 468.014L1161.29 470.031L1162.35 472.289L1163.67 473.655L1165.76 474.786L1170.07 476.274L1170.34 476.462L1170.64 476.612L1171.22 476.681Z" fill="#E5011A" stroke="white" stroke-linecap="round" stroke-linejoin="round"/>
<path d="M1176.83 295.746L1177.08 295.816L1175.93 298.997L1173.07 300.656L1166.71 302.18L1155.83 308.88L1152.66 309.506L1148.87 309.368L1145.7 310.06L1144.36 313.174L1144.13 318.053L1143.28 319.481L1140.61 320.319L1132.94 321.045L1130.57 322.21L1122.96 327.584L1119.6 330.846L1117.35 334.841L1115.54 337.073L1113.22 338.356L1110.7 339.36L1106.11 342.356L1093.65 348.382L1092.03 350.569L1093.44 353.291L1096.28 354.522L1107.13 355.521L1107.14 355.529L1107.15 355.534L1107.17 355.547L1110.04 356.986L1111.33 357.954L1112.46 359.157L1114.34 362.075L1115.5 362.968L1116.86 363.02L1115.98 365.006L1115.28 366.081L1111.52 370.22L1111.3 370.692L1111.19 371.306L1111.38 372.274L1111.41 373.572L1111.67 374.015L1111.94 374.317L1114.06 374.565L1114.33 375.238L1113.98 376.412L1113.75 376.935L1112.28 379.499L1112.14 380.007L1112.16 380.562L1112.33 381.127L1112.83 381.805L1114.37 383.518L1115.94 385.7L1116.29 387.547L1116.44 393.765L1115.88 395.698L1115.88 395.711L1114.93 394.858L1111.5 393.68L1108.61 394.312L1106.48 403.142L1102.2 407.26L1096.63 410.028L1088.64 412.64L1081.36 417.255L1067.17 420.928L1065.48 421.626L1063.95 422.682L1060.72 426.058L1058.89 427.404L1056.82 427.925L1054.45 427.202L1053.48 426.475L1052.69 425.6L1051.28 423.623L1050.43 422.779L1048.49 421.727L1047.58 421.055L1044.58 417.207L1042.84 415.866L1040.38 415.668L1039.18 415.06L1038.21 414.215L1037.19 413.528L1035.8 413.399L1033.29 414.077L1032.06 414.637L1030.97 415.393L1029.01 417.48L1027.82 419.652L1027.28 422.151L1027.24 425.218L1027.77 429.647L1027.45 430.773L1026.34 431.328L1021.67 431.65L1018.91 433.211L1018.88 434.93L1021.97 439.243H1021.98L1023.63 443.922L1024.38 445.402L1026.38 448.378L1027.22 449.951L1027.71 451.791L1027.14 455.852L1024.66 456.202L1021.7 455.269L1019.68 455.479L1020 457.929L1025.6 462.079V464.039L1022.7 465.133L1018.87 465.03L1011.95 463.32L1009.31 462.22L1009.31 462.198L1009.72 461.114L1010.82 457.823L1010.68 456.611L1010.17 455.921L1009.07 453.631L1010.69 446.027L1010.88 445.46L1011.34 444.62L1011.77 444.003L1012.86 442.822L1013.18 442.105L1013.05 441.36L1012.78 440.632L1012.62 439.961L1012.13 439.43L1011.33 438.796L1011.17 438.124L1012.62 437.458L1011.92 437.029L1011.16 436.81L1010.33 436.763L1009.47 436.841L1010.34 433.856L1011.07 432.706L1013.02 431.983L1012.98 431.394L1012.5 430.804L1011.81 430.54L1011.07 430.891L1010.26 431.57L1009.49 432.032L1008.9 431.728L1008.92 431.111L1010.19 430.113L1010.47 429.401L1010.09 428.617L1008.69 427.649L1007.78 425.57L1006.36 425.473L1003.11 425.989L1004.34 424.295L1004.63 423.45L1003.9 423.092L1002.73 423.415L1001.66 424.009L1000.57 424.298L999.383 423.713L1000.4 422.619L1000.23 421.494L999.374 420.473L998.333 419.675L997.779 419.52L997.234 419.593L996.696 419.571L996.183 419.157L996.112 418.791L996.255 417.817L996.183 417.45L995.388 416.101L994.974 415.665L994.127 415.118L992.074 414.257L991.549 413.927L990.981 413.289L990.086 411.867L989.398 411.129L988.241 410.432L986.565 409.818L984.87 409.57L983.615 409.988L983.365 408.543L983.138 407.984L982.804 407.993L982.124 408.413L981.715 408.197L981.52 407.584L981.416 405.604L981.166 404.759L980.553 404.032L976.653 401.075L977.354 400.823L979.721 399.966L980.505 399.174L981.273 398.391L982.686 395.037L984.103 391.686L985.15 390.701L986.22 389.717L988.869 388.76L991.506 387.802L992.466 386.436L993.425 385.08L993.911 384.533L994.416 383.99L995.208 383.773L996.003 383.56L997.65 383.383L999.31 383.205L1000.69 382.641L1002.08 382.085L1003.41 381.338L1004.72 380.587L1005.38 380.053L1006.04 379.52L1006.34 379.039L1006.65 378.552L1007.25 374.551L1007.86 370.551L1007.82 369.86L1007.79 369.164L1007.68 368.668L1007.58 368.176L1007.47 368.024L1007.36 367.871L1007.18 367.763L1006.99 367.65L1006.63 367.276L1006.28 366.906L1006.18 366.559L1006.07 366.211L1006.25 365.915L1006.43 365.619L1006.74 365.397L1007.06 365.184L1008.84 364.461L1010.62 363.743L1011.34 363.555L1012.06 363.372L1012.78 363.602L1013.5 363.837L1013.89 362.961L1014.28 362.085L1015.21 361.323L1016.16 360.556L1018.25 359.457L1020.35 358.363L1020.98 358.25L1021.6 358.146L1022.74 358.491L1023.88 358.827L1024.44 358.762L1025 358.692L1026.49 357.907L1027.98 357.118L1028.54 356.987L1029.13 356.857L1031.41 357.206L1033.71 357.551L1034.16 357.328L1034.61 357.118L1034.56 356.682L1034.51 356.247L1033.87 355.27L1033.23 354.302L1033.1 353.858L1032.95 353.409L1033.45 352.304L1033.95 351.2L1034.97 350.584L1035.99 349.969L1038.18 349.393L1040.38 348.821L1044.29 346.279L1048.2 343.727L1049.3 342.674L1050.4 341.621L1051.05 341.199L1051.71 340.772L1056.9 339.581L1062.1 338.392L1066.39 338.257L1070.67 338.128L1072.28 337.566L1073.87 337.004L1075.05 335.865L1076.22 334.729L1076.75 334.075L1077.27 333.421L1077.87 333.021L1078.46 332.625L1080.62 331.968L1082.77 331.319L1085.96 329.375L1089.17 327.42L1090.14 326.479L1091.12 325.544L1093.73 321.818L1096.33 318.096L1096.89 317.622L1097.45 317.153L1098.1 316.836L1098.77 316.527L1099.47 316.32L1100.16 316.116L1100.8 315.843L1101.43 315.569L1101.92 315.116L1102.4 314.66L1102.69 313.918L1102.96 313.171L1103.92 311.439L1104.87 309.698L1106.51 308.522L1108.17 307.345L1111.93 306.003L1115.68 304.663L1116.24 304.755L1116.81 304.843L1117.52 305.261L1118.22 305.672L1118.84 306.247L1119.45 306.814L1119.74 307.366L1120.02 307.925L1120.29 308.723L1120.56 309.519L1121.16 310.018L1121.74 310.515L1122.56 310.78L1123.36 311.049L1124.27 311.15L1125.19 311.257L1126.38 310.78L1127.59 310.308L1128.41 309.053L1129.23 307.802L1129.94 306.247L1130.64 304.691L1131.54 303.305L1132.44 301.916L1133.52 300.853L1134.59 299.789L1135 299.219L1135.42 298.648L1135.73 297.853L1136.04 297.064L1136.6 296.447L1137.14 295.837L1138.07 295.806L1138.98 295.775L1140.77 296.186L1142.56 296.593L1144.01 296.417L1145.47 296.243L1146.92 295.633L1148.36 295.015L1150.97 293.255L1153.58 291.497L1155.26 290.188L1158.68 288.119L1161.13 287.84L1163.58 288.676L1174.37 295.062L1176.83 295.746ZM1022.37 378.645L1024.81 376.093L1028.72 373.175L1031.63 371.977L1030.84 371.302L1031.39 370.516L1030.61 369.542L1029.54 368.98L1030.72 367.308L1030.43 365.944L1027.59 364.444L1025.22 364.181L1023.41 363.131L1020.81 363.155L1016.72 366.544L1016.11 369.205L1014.1 373.295L1014.33 373.474L1015.63 372.838L1015.77 373.886L1016.32 374.822L1018.23 376.619L1019.47 375.571L1019.54 375.909L1019.09 376.731L1020.05 378.153L1022.37 378.645Z" fill="#F7B333" stroke="white" stroke-linecap="round" stroke-linejoin="round"/>
<path d="M1116.85 363.021L1117.35 363.04L1119.98 362.213L1129.4 357.742L1132.02 357.415L1133.48 358.165L1134.77 359.599L1139.09 365.748L1139.83 367.466L1139.97 369.241L1138.83 374.405L1138.97 375.873L1139.92 377.02L1141.16 376.859L1142.66 376.268L1144.39 376.129L1145.87 376.636L1147.26 377.466L1148.52 378.534L1149.58 379.741L1150.99 380.839L1152.52 380.974L1155.83 380.562L1159.49 381.114L1161.21 381.765L1162.79 382.797L1164.19 383.444L1167.07 383.765L1168.3 384.59L1170.25 387.291L1171.46 387.967L1172.21 386.347L1172.05 384.585L1171.68 383.08L1171.89 381.917L1173.48 381.202L1175.31 381.328L1176.19 382.343L1177.13 385.505L1177.87 386.68L1178.85 387.546L1179.88 387.486L1180.71 385.877L1182.63 383.839L1187.9 387.582L1189.62 386.354L1190.04 383.44L1189.35 368.932L1189.83 367.861L1190.88 368.078L1194.59 370.944L1197.92 372.13L1200.54 371.705L1202.67 369.87L1205.23 365.302L1206.33 362.477L1206.66 360.796L1206.38 359.249L1204.21 356.952L1203.44 355.548V355.531L1203.43 355.522L1204.96 352.285L1205.89 351.351L1207.59 350.783L1209.28 350.997L1210.26 352.124L1210.66 353.763L1210.67 355.521L1209.26 360.258L1209.32 361.282L1210.05 361.503L1210.51 360.815L1210.82 359.896L1211.18 359.429L1212.01 359.712L1212.42 361.067L1213.15 361.342L1213.77 360.893L1213.82 359.115L1214.31 358.757L1214.96 358.974L1215.57 359.441L1222.8 368.327L1224.03 370.819L1224.47 373.593L1224.28 377.177L1224.69 380.716L1226.69 381.518L1232.8 380.655L1234.66 381.931L1235.84 383.315L1237.17 383.896L1239.47 382.755L1241.13 381.523L1242.92 380.555L1244.8 380.311L1246.77 381.271L1247.65 382.885L1248.01 385.172L1248.15 387.566L1248.86 391.946V393.588L1248.33 395.085L1247.28 397.08L1249.62 396.493L1249.18 397.854L1247.34 404.818L1246.75 405.27L1246.41 405.431L1245.94 405.601L1244.78 405.778L1240.16 405.934L1238.89 406.136L1237.55 406.012L1227.46 404.001L1225.35 404.167L1223.5 404.052H1221.81L1220.92 404.272L1217.7 405.536L1215.15 404.48L1207.18 406.233L1206.19 407.459L1205.22 408.034L1202.71 409.947L1202.39 410.426L1202.46 410.998L1203.38 412.001L1204.6 414.1L1202.38 415.897L1196.01 417.644L1189.18 420.703L1187.67 421.75L1185.25 424.817L1180.22 428.726L1178.45 429.015L1177.35 428.73L1173.86 427.159L1172.3 426.109L1171.44 425.847L1170.03 425.618L1169.23 425.407L1168.67 425.135L1166.48 423.258L1165.91 423.029L1162.89 422.754L1162.47 422.396L1167.36 416.894L1158.65 417.283L1156.19 416.997L1155.69 416.639L1155.07 416.281L1153.86 415.863L1152.31 415.856L1148.69 418.535L1147.67 418.651L1145.53 418.471L1144.49 418.535L1143.19 419.049L1142.34 419.814L1141.63 420.669L1140.81 421.436L1138.83 422.46L1139 421.764L1139.67 418.953L1136.72 417.548L1129.68 416.203L1128.48 414.919L1128.29 413.483L1129.01 412.425L1130.55 412.287L1133.22 414.207L1134.74 414.674L1134.89 413.129L1134.25 412.396L1120.21 399.322L1117.79 397.57L1117.54 397.323L1117.35 397.042L1115.87 395.708L1115.87 395.695L1116.43 393.762L1116.28 387.543L1115.93 385.697L1114.36 383.515L1112.82 381.802L1112.32 381.124L1112.15 380.559L1112.13 380.003L1112.27 379.496L1113.74 376.932L1113.97 376.409L1114.33 375.235L1114.05 374.562L1111.93 374.314L1111.66 374.012L1111.4 373.569L1111.38 372.271L1111.18 371.303L1111.29 370.689L1111.51 370.216L1115.27 366.078L1115.97 365.002L1116.85 363.021ZM1124.18 395.491L1122.93 395.755L1123.83 397.482L1123.91 397.55L1125.19 398.631L1127.44 401.135L1128.74 402.16L1130.27 402.455L1130.14 401.024L1129.15 399.004L1128.08 397.573L1126.29 396.244L1124.18 395.491Z" fill="#0B72B6" stroke="white" stroke-linecap="round" stroke-linejoin="round"/>
<path d="M1249.63 396.497L1254.05 395.387L1256.89 395.058L1257.47 394.673L1258.35 392.468L1258.75 391.861L1260.16 390.925L1261.19 391.502L1263.39 394.351L1265 395.183L1267.18 395.711L1271.28 396.04L1271.68 396.29L1271.89 396.636L1271.93 397.065L1271.8 397.571L1271.79 399.492L1273.18 400.085L1275.09 400.193L1276.58 400.668L1279.88 404.91L1282.26 407.061L1285.25 408.141L1288.56 408.469L1298.48 407.732L1301.45 408.396L1301.78 410.844L1301.57 412.234L1302.56 412.114L1306.12 410.064L1311.82 407.892L1313.05 408.582L1314.12 409.809L1315.68 410.719L1320.22 410.482L1321.95 410.806L1322.59 410.925L1322.59 410.926L1323 412.61L1320.65 415.176L1316.99 416.884L1309.77 419.087L1303.16 422.504L1297.62 423.671L1294.92 424.623L1293.08 426.948L1292.18 432.498L1289.94 433.348L1287.11 432.282L1285.71 432.273L1285.11 433.658L1285.01 434.887L1284.65 436.069L1283.91 437.091L1282.73 437.869L1279.67 438.015L1274.24 434.947L1271.28 434.62L1269.06 433.714L1266.51 431.267L1263.95 429.413L1261.67 430.261L1261.41 431.631L1261.41 431.641L1263.06 433.925L1263.07 433.941L1263.06 435.428L1262.54 436.782L1262.56 437.71V437.719L1263.23 438.471L1266.57 440.46L1266.58 440.463L1266.91 441.15L1267.38 442.103L1267.39 442.12L1267.31 444.061L1266.48 446.158L1264.91 447.925L1263.1 448.238L1261.02 447.594L1256.47 445.398L1255.34 445.051L1251.85 445.184L1250.87 444.923L1250.88 444.903L1251.25 444.146L1252.14 443.932L1253.45 443.833L1254.56 443.528L1254.87 442.688L1254.86 442.676L1254.15 442.207L1252.74 442.074L1252.16 442.098L1252.15 442.068L1252.05 441.686L1251.39 439.775L1251.21 438.628L1251.42 437.14L1251.7 435.586L1251.76 434.598L1251.73 434.137L1251.65 433.716L1250.56 432.922L1246.57 431.933L1245.68 431.855L1245.14 431.481L1243.63 429.673L1242.55 429.026L1241.78 429.589L1240.94 430.447L1239.64 430.557L1234.99 429.745L1231.4 428.753L1229.2 428.869L1227.66 429.099L1225.83 428.856L1225.12 428.661L1224.5 428.39L1221.4 424.905L1220.71 423.934L1220.07 423.321L1219.21 422.915L1215.19 421.779L1213.95 421.705L1213.1 421.806L1212.72 422.036L1211.95 421.963L1210.94 421.665L1208.86 420.786L1208.04 420.76L1207.58 421.012L1207.45 422.483L1207.13 422.322L1206.36 421.424L1204.68 418.752L1202.39 415.902L1204.6 414.106L1203.39 412.007L1202.46 411.004L1202.39 410.432L1202.72 409.952L1205.23 408.04L1206.19 407.465L1207.19 406.239L1215.16 404.486L1217.71 405.542L1220.92 404.278L1221.82 404.058H1223.5L1225.36 404.172L1227.47 404.006L1237.55 406.017L1238.9 406.142L1240.17 405.939L1244.79 405.784L1245.95 405.607L1246.41 405.436L1246.76 405.275L1247.34 404.823L1249.18 397.86L1249.63 396.497Z" fill="#7D3686" stroke="white" stroke-linecap="round" stroke-linejoin="round"/>
<path d="M1009.3 462.22L1006.87 461.208L1005.11 460.969L992.588 462.569L991.057 463.091L988.38 464.357L986.577 464.554L982.118 463.913L980.406 464.042L976.128 464.974L976.099 464.948L976.076 464.926L975.158 463.459L975.408 462.758L975.729 462.169L976.792 459.011L977.103 458.423L977.425 457.98L977.787 457.565L978.193 456.991L978.109 456.811L977.771 456.798L954.706 461.501L937.206 461.185L935.092 460.902L934.806 460.589L934.353 459.951L934.026 459.284L933.715 457.019L933.929 455.71L934.24 454.574L943.333 437.401L943.126 436.351L942.399 436.405L941.027 436.76L939.739 436.887L939.321 436.577L939.149 436.147L939.655 433.054L939.75 431.074L939.928 430.65L940.285 430.405L940.727 430.247L941.729 430.052L945.958 429.456L946.983 428.566L947.162 425.208L953.121 427.787L962.191 431.706L962.318 431.495L962.445 431.284L962.915 430.888L963.392 430.492L963.973 430.518L964.553 430.545L964.851 430.253L965.127 429.961L965.341 429.6L965.555 429.239L965.913 429.037L966.275 428.839L966.717 428.904L967.161 428.968L968.701 429.596L970.232 430.224L971.267 430.353L972.294 430.473L973.105 430.072L973.929 429.672L974.172 429.126L974.402 428.579L973.653 428.257L972.917 427.93L973.852 426.668L974.791 425.398L974.863 425.118L974.942 424.838L974.611 424.373L974.281 423.912L974.018 423.396L973.762 422.889L973.627 422.355L973.484 421.821L973.523 421.3L973.555 420.783L972.592 420.593L971.613 420.404L971.24 420.231L970.874 420.06L970.556 419.728L970.238 419.392L969.982 418.616L969.732 417.823L969.339 414.329L968.957 410.834L969.093 410.192L969.244 409.548L969.455 409.341L969.673 409.126L969.913 408.97L970.168 408.819L970.422 408.344L970.665 407.873L970.716 407.471L970.765 407.065L970.661 406.128L970.565 405.195L970.574 404.737L970.59 404.275L970.752 404.358L970.931 404.435L971.288 404.551L971.654 404.668L971.822 404.764L971.997 404.855L972.419 403.869L972.841 402.892L973.907 402.287L974.981 401.681L976.642 401.081L980.542 404.038L981.155 404.765L981.405 405.61L981.509 407.59L981.703 408.203L982.113 408.419L982.793 407.999L983.127 407.99L983.354 408.549L983.604 409.994L984.858 409.576L986.554 409.824L988.229 410.438L989.387 411.135L990.075 411.873L990.97 413.295L991.538 413.933L992.063 414.263L994.116 415.124L994.963 415.671L995.377 416.107L996.172 417.456L996.244 417.823L996.101 418.797L996.172 419.163L996.685 419.577L997.223 419.599L997.768 419.526L998.321 419.681L999.363 420.479L1000.22 421.5L1000.39 422.625L999.372 423.719L1000.56 424.304L1001.64 424.015L1002.72 423.421L1003.89 423.098L1004.62 423.456L1004.33 424.301L1003.1 425.995L1006.35 425.479L1007.77 425.576L1008.67 427.655L1010.08 428.623L1010.46 429.407L1010.17 430.119L1008.91 431.117L1008.88 431.734L1009.48 432.038L1010.24 431.576L1011.06 430.897L1011.8 430.546L1012.49 430.81L1012.97 431.4L1013 431.989L1011.06 432.712L1010.33 433.862L1009.45 436.847L1010.32 436.769L1011.14 436.816L1011.91 437.035L1012.61 437.464L1011.16 438.13L1011.32 438.802L1012.12 439.436L1012.61 439.967L1012.77 440.638L1013.04 441.366L1013.17 442.111L1012.85 442.828L1011.76 444.009L1011.33 444.626L1010.87 445.466L1010.67 446.033L1009.06 453.637L1010.16 455.927L1010.66 456.617L1010.81 457.829L1009.71 461.12L1009.3 462.204L1009.3 462.22ZM980.271 470.92L998.293 468.022L1001.88 470.153L1002.38 471.31L1002.63 472.575L1002.51 473.779L1001.88 474.791L1000.13 475.025L994.53 474.299L992.971 474.713L990.241 476.675L989.246 476.935L987.495 474.354L986.286 473.551L985.287 475.071L985.45 475.813L986.818 476.718L987.081 477.346L986.918 479.038L987.034 479.814L987.417 480.641L994.195 488.344L994.454 490.175L991.179 491.302L989.416 489.06L988.242 485.496L986.675 482.667L985.067 481.75L984.539 482.394L984.814 483.937L985.557 485.717L987.279 488.74L987.259 489.897L986.325 491.476L986.034 491.641L985.226 491.756L984.964 491.888L984.415 493.125L984.431 493.24L984.424 493.652L984.256 494.469L983.74 495.004L982.706 494.566L980.653 491.81L979.388 491.022L976.771 492.941L975.938 492.658L976.135 491.813L976.158 490.544L976.564 489.821L976.803 489.234L976.91 488.762L976.683 488.447L976.301 488.186L974.929 487.46L974.572 487.178L974.416 486.854L974.475 486.52L975.095 486.21L975.572 486.259L975.978 486.457L976.289 486.781L976.539 487.109L976.814 487.076L977.089 486.634L977.328 483.911L977.269 483.143L977.162 482.696L976.912 481.904L976.28 480.421L976.112 480.127L976.063 480.046L975.824 479.591L975.526 478.826L975.419 478.365L975.395 477.819L975.467 477.196L975.788 476.29L976.982 474.508L980.271 470.92Z" fill="#00962F" stroke="white" stroke-linecap="round" stroke-linejoin="round"/>
<path d="M976.12 464.971L972.985 465.655L971.377 466.582L973.366 468.393L976.81 470.175L979.531 471.037L980.261 470.92L976.973 474.512L975.779 476.294L975.458 477.2L975.386 477.824L975.409 478.369L975.517 478.83L975.815 479.595L976.054 480.05L976.103 480.131L976.271 480.425L976.903 481.908L977.153 482.7L977.26 483.148L977.319 483.915L977.08 486.638L976.805 487.08L976.53 487.113L976.279 486.785L975.969 486.461L975.563 486.263L975.086 486.214L974.466 486.524L974.407 486.858L974.563 487.182L974.92 487.464L976.292 488.19L976.674 488.451L976.901 488.766L976.794 489.239L976.555 489.825L976.149 490.548L976.126 491.817L975.929 492.662L975.735 492.596L974.843 492.54L974.048 494.31L973.276 507.563L972.855 509.536L971.828 511.152L969.973 512.759L966.688 514.484L965.646 515.713L965.912 516.218L966.459 517.255L966.473 517.281L964.953 517.858L960.222 518.89L956.399 519.186L952.625 518.962L946.334 517.107L934.813 516.815L908.509 511.199L904.897 511.136L902.037 511.894L894.873 516.115L888.718 516.911L887.194 518.136L887.727 521.769L887.464 522.061L887.146 522.303L886.789 522.455L886.407 522.527L884.425 522.303L883.255 522.422L877.44 518.171L874.23 515.829L873.14 514.775L872.352 513.415L872.518 507.733L872.769 507.088L873.21 506.312L874.26 506.117L876.592 506.058L877.236 505.982L877.928 505.749L878.262 505.375L878.43 504.872L878.494 503.893L878.471 503.43L878.289 502.582L878.16 502.164L878.053 501.597L878.017 500.868L878.101 499.664L878.26 499.092L878.412 498.743L879.037 498.232L880.231 497.505L882.621 496.463L884.279 495.962L886.355 495.578L886.955 495.539L888.136 495.274L888.434 494.627L886.353 486.951L885.065 485.243L871.734 483.187L869.921 482.998L869.165 483.233L868.461 483.148L867.924 482.931L866.671 482.263L866.146 482.291L865.608 482.417L864.376 482.482L863.493 482.386L857.426 481.009L856.515 479.739L856.158 479.851L855.811 479.897L854.773 480.222L852.095 477.774L851.976 477.337L851.952 476.661L852.192 476.119L852.133 474.993L851.751 474.481L851.213 474.163L850.616 474.087L850.127 474.101L849.744 474.182L848.272 474.796L847.795 474.924L847.186 475.005L846.53 474.971L845.648 474.792L845.291 474.431L845.04 474.01L844.694 470.295L844.753 469.854L844.955 469.475L845.36 469.277L846.804 468.881L847.197 468.616L847.424 468.349L847.758 467.601L847.806 465.687L845.705 463.56L845.455 462.897L845.491 462.295L845.669 461.812L845.741 461.23L845.478 460.871L845.096 460.58L843.517 459.951L842.907 459.596L842.645 459.172L842.466 458.747L841.38 454.451L841.201 453.061L841.071 449.161L841.094 448.601L841.178 448.077L841.333 447.584L842.002 446.318L842.443 445.108L842.527 443.967L842.359 443.178L842.061 442.385L841.464 441.335L841.071 440.805L840.653 440.56L840.199 440.594L838.166 440.955L836.412 441.024L835.167 440.87L833.925 440.587L830.727 439.82L821.025 439.522L820.415 439.152L832.196 420.271L834.355 415.824L832.673 413.344L831.969 411.887L831.838 411.503V410.099L832.029 408.599L832.053 407.776L832.017 407.165L831.862 406.782L831.586 406.465L831.165 406.186L824.203 404.623L823.14 404.137L822.675 403.863L822.027 403.215L821.596 402.502L821.405 402.118L821.275 401.659L819.962 389.981L820.928 388.941L821.573 387.633L830.99 384.481L831.02 384.195L832.267 384.464L835.438 385.14L844.378 384.697L851.888 384.333L863.114 383.777L871.345 383.37L881.167 382.888L887.421 382.576L897.406 382.077L907.251 381.596L908.13 381.8L909.006 382L910.63 382.698L912.245 383.391L913.088 383.639L913.931 383.883L914.671 383.796L915.41 383.705L917.638 382.491L919.866 381.272L920.839 380.752L921.822 380.231L922.292 381.429L922.749 382.623L922.849 382.68L922.937 382.736L923.207 383.204L923.476 383.667L925.172 385.511L926.874 387.346L927.264 388.091L927.653 388.836L927.955 390.456L928.266 392.081L928.768 392.771L929.284 393.459L929.741 393.146L930.208 392.829L930.701 392.634L931.187 392.448L931.657 392.504L932.133 392.568L932.555 393.014L932.961 393.456L933.493 392.516L934.025 391.575L934.845 391.511L935.673 391.442L935.824 392.334L935.967 393.221L935.974 393.316L935.987 393.407L935.887 393.793L935.792 394.183L936.159 394.283L936.528 394.383L936.644 394.469L936.748 394.551L935.866 395.088L934.97 395.625L934.649 395.758L934.315 395.892L934.629 396.034L934.944 396.172L935.135 396.371L935.313 396.571L935.628 397.059L935.946 397.548L935.939 398.746L935.923 399.935L935.549 401.34L935.167 402.75L934.594 404.115L934.029 405.485L933.432 406.573L932.843 407.657L932.425 408.206L931.991 408.754L931.423 409.281L930.854 409.807L930.222 410.223L929.582 410.645L928.23 411.149L926.878 411.65L926.536 411.909L926.186 412.169L926.067 412.497L925.943 412.826L926.199 412.972L926.449 413.124L927.976 413.395L929.497 413.662L930.667 414.21L931.841 414.754L935.362 417.631L938.879 420.501L941.457 422.177L944.051 423.857L947.162 425.203L946.983 428.562L945.957 429.452L941.729 430.047L940.726 430.242L940.285 430.401L939.928 430.646L939.749 431.07L939.655 433.05L939.149 436.143L939.321 436.572L939.739 436.882L941.027 436.756L942.399 436.401L943.126 436.347L943.333 437.397L934.24 454.57L933.929 455.705L933.715 457.015L934.025 459.279L934.352 459.947L934.806 460.585L935.092 460.897L937.205 461.18L954.706 461.497L977.771 456.793L978.109 456.806L978.193 456.987L977.787 457.56L977.425 457.975L977.103 458.418L976.792 459.006L975.729 462.164L975.408 462.754L975.158 463.455L976.076 464.921L976.099 464.943L976.12 464.971Z" fill="#E95E06" stroke="white" stroke-linecap="round" stroke-linejoin="round"/>
<path d="M883.267 522.418L882.56 523.163L881.597 526.315L881.088 529.605L881.004 532.622L880.028 535.372L879.448 538.082L878.939 538.235L878.247 538.057L877.427 538.28L877.279 538.389L858.876 534.571L854.778 534.412L854.755 534.829L854.875 535.633L854.887 536.042L854.828 536.454L854.66 536.878L854.374 537.23L854.005 537.507L853.586 537.676L852.656 537.84L844.15 538.114L843.048 537.928L842.487 537.749L841.985 537.519L841.556 537.242L841.258 536.758L841.151 536.095L841.281 534.845L841.771 532.575L841.485 531.437L839.945 529.015L838.294 528.808L831.75 527.744L825.692 526.932L824.678 526.941L823.293 527.276L822.096 527.827L821.464 528.263L820.974 528.694L818.48 531.831L817.748 532.415L811.992 534.329L811.372 534.376L810.37 534.156L809.137 533.634L804.585 530.631L802.616 529.609L801.16 529.681L790.05 531.794L789.668 531.813L782.32 534.801L780.708 535.671L779.503 536.004L776.753 536.01L771.605 534.871L771.103 534.563L770.752 534.063L770.577 533.123L770.513 532.51L770.506 531.965L770.609 530.678L770.586 529.418L770.347 528.92L770.12 528.54L768.174 527.312L765.891 526.01L761.865 522.777L761.029 521.821L760.61 521.224V521.207L760.575 521.164L760.396 520.743L759.656 518.078L759.465 517.725L759.203 517.396L758.856 517.116L758.463 516.908L757.961 516.764L757.229 516.667L754.806 516.595L753.97 516.716L753.325 517.082L753.166 517.489L753.095 517.927L753.159 519.169L753.136 519.585L753.025 520L752.762 520.362L752.416 520.673L750.804 521.647L749.141 522.367L748.246 522.607L715.375 521.918L711.266 515.177L710.323 512.744L710.394 512.248L712.661 508.029L712.863 507.373L713.042 506.612L713.113 505.402L713.018 504.761L710.691 497.85L710.019 497.079L709.458 496.549L707.931 495.427L705.635 493.286L705.051 492.246L705.181 491.846L705.531 491.543L706.017 491.322L706.714 491.175L710.514 490.74L715.148 489.74L715.732 489.392L716.377 488.905L716.663 487.481L716.854 486.985L717.26 486.404L717.737 486.224L718.297 486.262L720.891 487.479L723.187 488.314L725.334 488.584L727.53 488.56L728.536 488.302L729.204 487.916L729.704 486.929L731.017 482.666L731.232 482.173L732.454 480.01L732.739 479.332L732.798 478.886L732.704 478.505L732.382 478.191L731.953 477.98L731.435 477.857L730.91 477.797L730.647 477.5L730.706 476.959L732.68 474.532L732.931 474.142L733.074 473.864L733.216 473.485L733.324 473.058L733.467 471.38L733.461 470.371L733.52 469.94L733.735 469.41L734.199 468.628L734.653 468.222L735.153 468.017L736.275 468.073L743.299 470.661L744.827 470.905L745.082 471.009L745.858 471.131L747.835 473.414L749.041 474.466L752.164 475.385L753.624 476.337L755.128 476.977L756.739 476.535L760.082 478.292L763.337 478.844L779.946 475.916L780.801 475.542L785.77 471.741L786.463 471.044L786.856 470.363L786.868 469.714L786.665 469.189L786.211 468.697L785.65 468.463L784.921 468.369L784.24 468.397L782.781 468.615L782.22 468.574L781.886 468.42L781.743 467.974L781.898 467.339L783.896 463.475L784.492 461.597L784.969 460.524L785.637 459.471L787.563 457.19L787.946 456.617L788.04 455.825L786.854 455.002L786.579 454.588L786.388 453.974L786.482 453.443L787.52 451.574L788.062 449.766L787.783 446.799L786.947 444.835L786.97 444.217L787.352 443.722L788.848 443.125L789.409 442.698L790.018 441.733L790.066 441.098L789.72 440.428L789.182 439.706L788.501 438.258L788.524 436.897L788.751 435.586L789.741 433.322L790.373 432.273L791.077 431.327L791.972 430.487L792.919 429.907L793.934 429.627L795.02 429.739L796.165 430.195L797.757 431.173L799.154 431.82L800.519 432.273L801.771 432.421L803.299 432.249L805.101 431.57L810.659 428.448L811.388 428.207L812.069 428.29L812.94 428.681L815.104 430.256L817.73 432.753L817.944 433.093L818.055 433.461L817.991 434.246L817.537 435.563L817.524 435.937L817.608 436.237L817.776 436.594L818.039 436.981L818.914 437.934L820.419 439.15L821.028 439.52L830.73 439.817L833.928 440.585L835.17 440.868L836.415 441.022L838.169 440.953L840.202 440.592L840.656 440.558L841.074 440.803L841.467 441.333L842.064 442.383L842.362 443.176L842.53 443.965L842.446 445.106L842.005 446.316L841.337 447.582L841.181 448.075L841.097 448.598L841.074 449.159L841.204 453.058L841.383 454.449L842.469 458.745L842.648 459.17L842.91 459.594L843.52 459.949L845.099 460.578L845.481 460.868L845.744 461.228L845.672 461.81L845.494 462.292L845.458 462.895L845.708 463.558L847.809 465.685L847.761 467.599L847.427 468.347L847.2 468.614L846.807 468.879L845.363 469.275L844.958 469.473L844.756 469.852L844.697 470.293L845.044 474.008L845.294 474.429L845.651 474.79L846.533 474.969L847.189 475.003L847.798 474.922L848.275 474.794L849.747 474.18L850.13 474.099L850.619 474.084L851.216 474.161L851.754 474.479L852.136 474.991L852.195 476.117L851.955 476.658L851.979 477.335L852.098 477.772L854.776 480.219L855.814 479.895L856.161 479.848L856.518 479.737L857.429 481.007L863.496 482.384L864.379 482.48L865.611 482.415L866.149 482.289L866.674 482.261L867.927 482.928L868.464 483.145L869.168 483.23L869.924 482.996L871.737 483.185L885.068 485.241L886.356 486.948L888.437 494.625L888.139 495.272L886.958 495.537L886.358 495.575L884.282 495.96L882.624 496.461L880.234 497.503L879.04 498.23L878.415 498.74L878.263 499.089L878.104 499.661L878.02 500.866L878.056 501.594L878.163 502.162L878.294 502.576L878.476 503.423L878.499 503.887L878.435 504.865L878.267 505.368L877.933 505.742L877.241 505.975L876.596 506.052L874.265 506.11L873.215 506.305L872.773 507.081L872.523 507.727L872.357 513.408L873.145 514.768L874.235 515.823L877.445 518.165L883.267 522.418Z" fill="#803788" stroke="white" stroke-linecap="round" stroke-linejoin="round"/>
<path d="M877.273 538.388L876.698 538.81L876.332 539.172L876.173 539.741L876.041 540.906L876.607 544.13L876.611 544.149L878.774 545.807L888.074 548.54L894.336 548.733L897.375 549.74L897.709 550.055L898.322 550.964L898.75 551.346L899.276 551.422L900.557 551.196L901.05 551.327L901.743 552.3L901.754 552.316L901.896 553.431L901.021 559.745L901.403 561.728L901.407 561.746L901.486 561.81L900.344 562.527L898.956 562.989L893.366 563.193L892.387 563.399L891.488 563.708L891.035 563.931L890.57 564.262L890.009 564.738L889.555 565.313L889.354 565.917L889.366 566.602L889.939 568.494L890.381 571.392L892.258 574.193L892.414 574.541L892.521 574.956L892.498 575.421L892.414 575.933L892.258 576.398L892.164 576.887L892.128 577.316V577.74L892.176 578.159L892.283 578.57L892.439 578.96L892.678 579.79L892.726 580.239V580.704L892.512 581.306L892.119 581.953L891.319 582.961L890.956 583.631L890.765 584.229L890.752 585.646L890.622 586.029L890.347 586.309L889.809 586.242L889.404 586.041L888.006 584.806L887.685 584.592L887.276 584.386L886.774 584.206L885.639 583.938L884.423 583.814L883.313 583.854L882.343 584.059L881.234 584.471L880.507 584.933L880.017 585.327L879.599 585.742L875.001 593.113L874.22 593.98L872.848 595.125L872.121 595.611L870.951 596.118L867.903 596.725L867.271 597.908L866.435 599.069L865.057 600.308L862.181 602.268L861.75 602.771L861.248 603.799L860.827 605.179L859.991 609.324L859.394 611.239L859.18 611.669L858.201 612.552L849.672 618.18L845.275 620.204L844.38 620.422L841.585 620.799L840.965 621.177L840.261 621.859L839.075 623.507L838.251 625.105L837.965 626.031L837.547 627.024L837.045 627.987L836.472 628.844L827.084 636.068L826.448 636.753L825.983 638.084L825.588 641.231L825.17 642.316L823.964 644.27L821.676 645.486L820.738 643.302L820.731 643.298L820.715 643.287L818.124 641.766L815.336 640.653L812.392 639.992L806.503 639.962L804.108 639.37L796.302 636.356L792.722 632.634L790.462 630.863L787.949 629.904L782.956 628.732L778.186 625.576L776.022 624.639L770.938 623.966L763.181 620.875L760.58 620.685L758.384 621.421L754.661 623.886L752.676 624.809L747.397 625.162L742.202 623.737L729.536 616.688L721.883 612.427L711.5 606.634L704.227 601.175L693.98 593.496L688.808 590.821L677.478 587.528L667.588 582.819L651.377 571.561L647.009 566.897L647.018 566.889L648.211 565.86L655.238 559.531L658.846 557.488L669.44 553.984L673.574 552.751L686.38 548.927L686.821 548.714L687.178 548.381L687.357 547.699L687.298 547.227L687.084 546.821L686.821 546.497L684.359 544.008L683.822 543.361L683.452 542.659L683.332 542.282L683.248 541.89V541.468L683.332 541.02L683.798 540.328L684.542 539.499L690.405 534.236L690.859 533.942L691.432 533.718L692.375 533.627L693.079 533.671L693.99 533.397L694.957 532.781L702.674 526.429L706.306 524.17L713.913 522.691L715.373 521.916L748.244 522.605L749.139 522.364L750.802 521.644L752.414 520.67L752.76 520.36L753.023 519.997L753.134 519.582L753.157 519.167L753.093 517.925L753.164 517.486L753.323 517.08L753.968 516.713L754.804 516.593L757.227 516.665L757.959 516.762L758.461 516.906L758.854 517.114L759.201 517.394L759.463 517.722L759.654 518.076L760.394 520.741L760.573 521.162L760.608 521.204V521.222L761.026 521.819L761.863 522.775L765.889 526.008L768.172 527.31L770.118 528.538L770.345 528.917L770.584 529.416L770.607 530.676L770.504 531.962L770.511 532.508L770.575 533.121L770.75 534.061L771.1 534.561L771.602 534.869L776.751 536.007L779.501 536.001L780.706 535.668L782.318 534.799L789.666 531.811L790.048 531.792L801.158 529.679L802.614 529.607L804.583 530.629L809.135 533.631L810.367 534.153L811.37 534.373L811.99 534.326L817.746 532.412L818.478 531.829L820.972 528.692L821.462 528.26L822.094 527.825L823.291 527.273L824.675 526.939L825.69 526.93L831.748 527.741L838.292 528.806L839.943 529.013L841.483 531.434L841.769 532.572L841.279 534.843L841.149 536.092L841.256 536.755L841.554 537.239L841.983 537.516L842.485 537.747L843.046 537.926L844.148 538.112L852.654 537.838L853.584 537.673L854.002 537.505L854.372 537.228L854.658 536.876L854.826 536.452L854.885 536.04L854.872 535.63L854.753 534.827L854.776 534.41L858.874 534.568L877.273 538.388Z" fill="#F7B334" stroke="white" stroke-linecap="round" stroke-linejoin="round"/>
<path d="M901.488 561.812L902.817 562.898L912.659 564.216L914.728 564.186L920.572 562.56L920.579 562.558V562.552H920.598L921.626 562.13L922.708 561.891L923.814 561.9L925.111 562.268L925.717 562.563L926.903 563.51L928.168 563.708L929.449 563.325L930.73 562.548L931.335 562.42L931.964 562.375L932.593 562.42L933.193 562.548H933.209L933.222 562.561L933.238 562.563L934.415 563.742L937.013 568.479L938.453 570.232L939.247 571.201L940.016 572.838L939.928 574.627L939.244 575.978L938.29 577.074L937.113 577.935L935.809 578.567L934.006 578.872L932.641 578.834L931.782 579.274L931.519 581.029L931.75 581.848L932.203 582.566L932.546 583.316L932.491 584.227L932.093 584.722L930.147 585.859L929.542 587.079L929.749 588.561L930.78 591.588L930.947 593.223L930.688 597.869L930.892 599.644L931.466 600.713L933.336 603.058L933.774 604.289L933.933 606.856L934.195 608.029L934.928 609.172L937.943 611.553L940.791 615.846L942.108 616.958L946.099 618.806L952.208 623.294L954.07 625.739L954.411 628.839L953.154 633.549L951.244 637.985L948.244 641.755L947.321 643.282L947.314 643.287V643.298L947.305 643.304L947.297 643.309L946.72 644.676L946.37 645.897L945.793 646.907L944.97 647.407L944.584 647.64L943.406 647.938L939.817 648.34L937.418 649.01L936.053 650.162L932.775 658.331L930.508 661.999L924.898 668.444L920.745 671.713L916.779 675.86L913.497 680.552L911.341 685.451L911.042 688.795L912.57 695.08L912.836 698.426L912.434 701.283L911.552 703.975L910.099 706.345L909.749 707.511L909.399 706.028L908.497 704.971L907.135 704.294L905.54 703.966L902.791 704.069L901.815 703.966L900.963 703.611L899.284 702.562L898.401 702.337L897.526 702.427L896.057 702.797L895.253 702.884L894.773 703.247L894.303 704.036L893.706 704.792L892.874 705.05L891.613 704.127L890.16 700.842L888.39 700.122L886.791 700.487L885.374 701.367L882.845 703.472L881.317 704.413L879.77 705.073L878.103 705.463L876.233 705.594L874.26 705.959L871.325 707.527L869.607 707.806L867.884 707.229L867.002 706.015L866.441 704.542L865.669 703.177L864.119 702.004L860.705 700.923L859.154 700.12L858.43 698.912L857.157 695.462L856.21 694.744L854.595 694.352L851.515 692.529L850.114 691.98L846.398 691.914L839.326 693.289L829.257 693.657L828.446 693.908L826.931 694.99L826.111 695.238L824.026 695.166L823.076 695.021L817.988 693.246L816.142 693.07L814.172 693.198L812.677 693.588L810.77 692.375L810.938 690.919L812.1 689.559L813.539 688.34L814.756 686.698L814.454 685.426L813.232 684.342L811.717 683.27L810.667 681.01L810.953 678.166L812.639 672.794L812.934 669.617L812.321 663.351L812.616 660.216L815.297 656.272L819.562 651.694L822.39 647.151L821.677 645.492L823.965 644.276L825.171 642.322L825.589 641.237L825.984 638.09L826.449 636.759L827.085 636.074L836.473 628.85L837.046 627.993L837.548 627.03L837.966 626.037L838.252 625.111L839.076 623.512L840.262 621.865L840.966 621.183L841.586 620.805L844.381 620.428L845.276 620.21L849.673 618.186L858.202 612.558L859.181 611.675L859.395 611.245L859.992 609.33L860.828 605.185L861.249 603.805L861.751 602.777L862.182 602.274L865.058 600.314L866.436 599.075L867.272 597.913L867.904 596.731L870.952 596.124L872.122 595.617L872.849 595.131L874.221 593.986L875.002 593.119L879.6 585.748L880.018 585.332L880.508 584.939L881.235 584.477L882.344 584.065L883.314 583.86L884.424 583.82L885.64 583.944L886.775 584.212L887.277 584.392L887.686 584.598L888.008 584.812L889.405 586.047L889.81 586.248L890.348 586.315L890.623 586.035L890.753 585.652L890.766 584.235L890.957 583.637L891.32 582.967L892.12 581.959L892.513 581.312L892.727 580.71V580.245L892.679 579.796L892.44 578.966L892.284 578.576L892.177 578.165L892.129 577.745V577.322L892.165 576.893L892.259 576.403L892.415 575.939L892.499 575.427L892.522 574.962L892.415 574.547L892.259 574.199L890.382 571.398L889.94 568.5L889.367 566.608L889.354 565.923L889.556 565.318L890.01 564.744L890.571 564.268L891.036 563.937L891.489 563.714L892.388 563.404L893.367 563.199L898.957 562.995L900.345 562.533L901.488 561.812Z" fill="#009430" stroke="white" stroke-linecap="round" stroke-linejoin="round"/>
<path d="M238.051 22.1316L243.071 24.9153L256.318 32.2589L267.982 38.7092L267.807 39.2035L265.904 41.2069L264.93 42.9728L263.412 46.9768L262.256 49.6358L259.968 52.7407L258.245 54.5286L257.497 57.6306L256.523 60.7311L255.391 62.9369L254.054 64.9316L251.38 67.8165L250.224 70.0194L249.272 72.2208L248.682 74.4472L249.658 78.8721L251.56 82.6121L254.053 85.2521L260.352 91.2082L269.915 99.112L274.878 103.072L278.888 105.493L282.899 108.122L283.76 108.902L284.055 110.099L283.669 112.517L282.127 114.493L278.502 116.467L277.347 119.089L276.032 121.712L274.31 124.333L275.442 126.744L279.272 127.185L282.717 126.978L285.775 126.304L287.769 124.774L290.534 124.567L293.616 124.982L296.471 124.126L299.712 122.361L304.108 119.947L306.034 117.766L306.397 116.675L305.353 115.688L303.926 115.584L302.679 115.143L301.818 114.493L301.546 113.713V112.828L302.022 112.074L302.497 111.086L303.449 110.332L304.106 109.76H305.353L307.37 109.89L309.568 110.203L310.995 109.89L312.151 108.902L312.717 107.679L313.759 104.712L314.234 101.872L313.871 99.1105L313.01 94.3908L311.674 90.7638L309.952 87.8906L309.385 85.0424L309.182 82.6107L310.518 81.1719L311.854 80.2831L313.282 78.8707L314.438 76.8555L315.004 74.4458V71.1179L315.208 66.9233V64.7614L316.683 65.574L331.633 73.7843L345.732 81.5224L358.596 88.5697L369.815 94.7106L379.005 99.7324L385.76 103.424L390.558 106.043L392.546 107.884L393.938 110.228L394.431 112.374L394.931 116.945L395.68 119.006L400.207 124.997L409.038 132.854L413.254 136.609L417.479 140.365L422.874 145.48L427.29 149.685L431.722 153.889L436.146 158.086L440.569 162.281L444.889 166.382L449.217 170.484L453.546 174.579L457.866 178.668L463.642 184.114L465.201 184.668L466.752 185.222L466.922 185.196L475.15 196.783L479.009 199.719L499.83 204.465L501.001 205.03L500.988 205.898L500.57 206.9L479.618 239.429L459.883 270.621L455.642 278.782L453.911 296.518V297.567L454.137 298.384L462.918 311.691L464.438 314.341L464.117 314.799L463.193 315.607L446.652 323.286L444.976 324.451L445.025 325.573L445.634 326.725L478.641 364.08L500.525 389.096L500.584 390.246L483.191 397.116L479.129 398.213L477.971 397.898L476.885 397.389L476.57 397.122L467.374 385.063L454.27 373.148L449.73 370.285L446.254 368.538L442.531 367.233L427.822 364.309L423.653 364.3L422.138 364.584L420.737 365.161L419.556 365.935L418.327 367.151L415.269 372.003L413.92 372.85L411.962 373.004L410.133 372.416L409.636 372.17L408.462 371.69L407.551 369.235L406.572 368.015L402.487 364.27L401.034 363.568L396.579 362.858L394.84 362.283L392.466 360.51L389.701 357.943L388.798 357.459L387.836 357.122L385.878 356.785L367.641 343.211L365.147 340.874L363.162 337.96L361.853 334.672L360.981 333.277L359.768 332.703L356.077 332.607L354.466 332.269L353.129 331.545L352.047 330.408L349.891 327.209L349.044 325.039L346.962 322.403L346.343 321.066L346.391 317.232L346.125 315.478L345.031 314.74L341.224 314.397L337.362 313.58L336.538 313.215L334.895 312.166L333.646 312.348L333.192 312.568L331.724 313.635L327.793 315.91L326.207 316.459L324.115 316.525L322.909 316.723L322.384 317.066L322.157 317.455L322.277 317.835L322.432 318.216L323.327 319.661L323.483 320.599L322.564 322.494L321.659 323.324L319.894 321.098L317.626 319.492L309.535 316.969L305.541 317.088L304.442 316.682L303.59 315.476L303.71 314.354L304.576 313.517L305.938 313.191L305.961 313.197H305.984H306.007L310.573 311.733L310.334 308.375L308.823 304.19L309.53 300.241L310.795 299.481L312.371 298.945L313.635 298.186L313.898 296.756L312.958 295.643L311.176 294.767L307.762 293.663L305.064 291.652L302.924 288.897L300.498 286.703L297.005 286.381L293.568 286.725L286.885 286.227L270.613 288.292L266.635 288.195L264.709 287.586L261.638 284.861L259.832 284.346L255.909 283.993L253.697 283.001L252.679 281.479L251.764 274.942L251.032 273.302L249.942 271.859L245.049 267.656L243.194 266.692L241.229 266.865L238.994 267.758L236.775 268.26L234.516 268.369L231.087 267.861L225.678 265.849L220.522 261.908L203.958 245.822L202.08 244.931L200.656 246.885L199.606 254.189L197.975 256.69L194.793 257.467L190.839 257.263L186.893 256.503L178.586 253.731L176.708 253.68L175.268 254.055L171.186 256.115L168.281 257.163L166.881 258.036L166.164 259.29L166.602 260.943L168.042 262.011L177.686 265.748L180.399 267.494L182.77 270.492L184.823 274.489L190.536 282.138L193.639 285.162L194.514 285.829L194.864 286.582L194.595 287.277L193.639 287.753L188.69 288.371L187.433 288.105L186.525 286.956L186.548 285.628L186.963 284.163L187.225 282.601L186.438 279.558L184.456 277.368L181.846 275.788L174.2 272.814L172.514 272.563L171.122 272.755L168.33 273.747L167.081 273.842L165.848 273.247L164.09 271.088L162.977 270.18L161.512 269.755L159.771 269.711L158.059 269.975L156.651 270.513L155.831 271.369L155.156 272.368L153.191 274.228L151.099 274.996L149.795 275.91L150.233 278.178L151.88 281.098L152.015 282.431L151.347 284.424L148.212 290.349L147.106 291.369L144.162 292.153L143.533 293.27L144.091 294.613L145.077 295.528L145.316 296.338L143.621 297.351L142.142 297.62L136.882 297.419L135.394 297.709L131.137 299.434L127.557 300.023L116.664 298.46L109.272 298.706L102.031 301.622L95.8411 306.635L91.6161 313.172V313.194L88.7362 316.713L85.5688 318.693L78.1781 321.551L76.0057 324.018L75.9825 327.289L77.685 333.981L77.4939 337.169L76.8882 339.893L76.8007 342.559L78.1781 345.581L79.8878 347.9L80.7703 350.113L81.0561 352.547L81.0007 355.531L81.3509 357.867L82.3853 360.202L83.8645 362.28L85.5509 363.848L86.6407 364.496L87.818 364.976L91.6768 365.755L92.2663 366.124L92.0984 366.699L91.232 367.548L89.5938 368.513L86.0047 369.992L84.4844 371.431L82.1137 374.99L80.6256 375.703L71.2126 374.087L63.9398 372.827L46.7377 372.057L43.9436 371.932L28.0171 371.218L13.6876 370.57L1.19651 370.017L1.18044 350.666L1.16436 331.256L1.15721 311.773L1.14113 292.219L1.13399 272.594L1.11969 252.907L1.11255 233.137L1.09647 213.293L1.08932 193.377L1.07325 173.383L1.0661 153.314L1.05002 133.168L1.04288 112.935L1.0268 92.6323L1.01965 72.2443L1 51.7771V51.7683V51.7595V51.7507V51.7419V51.7258V51.7067V51.6979V51.6891V51.6803L1.00715 51.6715L1.01429 51.6627V51.6539V51.6451H1.02144V51.6319V51.6231L1.02859 51.6143L1.03752 51.6055L1.04466 51.6011L1.0536 51.5923L1.06074 51.5879L1.06789 51.5835V51.5747H1.07503L1.08218 51.5659L1.08932 51.5615L1.09647 51.5571L1.1054 51.5527L1.11255 51.5483H1.12148H1.12863L1.13577 51.5395L1.14292 51.5351H1.15006L1.15721 51.5307L1.16436 51.5263H1.1715L1.17865 51.5219H1.18579L8.39428 49.6138L15.6099 47.7145L22.8184 45.8093L30.0501 43.8997L37.2657 41.9931L44.4813 40.0864L51.6898 38.1783L57.3173 36.6911L58.9054 36.2716L66.13 34.362L73.3385 32.4569L80.5541 30.5473L87.7697 28.6318L94.9943 26.7252L102.21 24.8082L109.426 22.8957L116.643 20.9817L126.261 18.5559L135.88 16.1242L145.507 13.6954L155.135 11.2607L159.581 10.1666L164.03 9.08128L168.478 7.99156L172.942 6.89743L177.573 5.79743L182.211 4.68864L186.848 3.57985L191.479 2.47399L197.717 1L199.524 1.13933L201.624 1.90346L202.294 2.276L202.232 2.44759L200.985 5.04944L200.69 6.69503L200.327 7.67622L199.331 9.50661L199.036 10.5142L199.08 13.0867L198.809 13.7496L198.514 13.9623L197.857 14.2542L197.562 14.4668L197.358 14.7851L196.565 16.4542L193.891 19.5517L193.505 20.134L193.301 20.398L192.485 21.0331L188.905 25.1338L188.587 25.7689L188.383 26.4832L188.135 28.7037L187.182 31.1603L186.209 32.9819L185.778 34.3547L185.348 37.2572L184.94 38.655L184.306 40.0527L183.513 41.3184L183.038 41.8464L181.905 42.7953L181.43 43.3482L181.112 43.9804L180.953 44.5861L180.794 45.9296L180.476 47.1674L175.354 57.5308L174.606 61.5495L174.379 64.1484L174.447 66.7722L176.101 70.6002L177.71 73.9545L179.863 76.8086L181.155 80.6556L180.951 82.7735L180.521 84.2372L179.863 85.4912L178.254 86.3536L176.328 88.5741L175.988 90.0099L175.377 90.8973L175.083 91.6277L174.947 92.3845L175.468 95.6463L176.76 99.2191L178.686 100.705L180.204 102.06L183.309 102.45L186.981 102.189L190.764 100.444L194.775 97.8111L198.219 95.177L200.508 92.7511L201.664 91.2111L202.616 89.8794L204.134 88.338L206.06 86.1438L207.782 83.7136L209.119 82.1707L210.434 80.6277L210.82 79.5292L209.687 77.8543L208.145 77.3043L206.243 76.6502L207.398 78.7445L206.062 79.0848L204.136 78.6404L203.388 77.5404L204.136 74.2155L205.088 72.6697L205.678 71.5697L207.197 71.1238L208.352 70.6779L209.871 71.1238L210.257 72.9058L210.643 74.0058L211.775 74.8696L213.317 75.1058L215.809 74.6599L217.145 73.3238L216.76 71.5682L215.037 70.2321L214.085 68.9209L214.855 66.6916L215.036 63.8316L214.083 60.9437L213.517 58.2906V56.5042L215.036 56.0832L217.144 55.8471L218.276 53.8495L218.662 51.6407L219.252 50.089L219.818 47.43L218.096 46.5353L216.374 47.6412L215.037 49.8529L212.159 51.1949L210.255 51.4061L208.352 52.7481L206.064 51.4061L205.86 49.4319L206.812 47.1938L208.149 44.7445L209.305 42.5313L211.775 40.3167L212.931 38.5229L215.039 36.7556L217.328 34.9619L219.05 34.3019L215.425 32.0843L213.521 30.0765L211.775 24.4988L211.027 20.9275L210.823 18.465L211.027 15.7898L212.159 12.6629L213.315 9.98474L213.973 8.77182L214.014 8.79528L221.508 12.9621L231.318 18.4136L238.051 22.1316Z" fill="#009430" stroke="white" stroke-linecap="round" stroke-linejoin="round"/>
<path d="M466.934 185.196L473.292 184.238L475.997 183.824L478.717 183.411L481.438 182.998L484.143 182.589L488.495 181.932L492.84 181.271L497.184 180.608L501.529 179.952L508.555 179.012L515.58 178.068L522.606 177.127L529.639 176.186L536.664 175.246L543.69 174.306L550.716 173.365L557.75 172.418L569.478 173.295L581.206 174.181L592.942 175.052L604.661 175.929L615.327 176.73L626.008 177.528L636.67 178.33L647.331 179.125L651.573 179.436L652.918 179.118L654.254 178.799L661.995 175.268L669.402 171.883L677.044 168.386L684.544 164.951L685.932 164.522L687.313 164.087L688.546 164.246L689.771 164.409L691.052 165.355L692.356 166.309L700.647 175.2L708.939 184.084L712.774 187.428L716.601 190.759L724.533 194.855L732.454 198.948L733.978 200.06L735.498 201.17L742.039 212.292L746.215 219.376L751.984 229.145L756.925 237.52L757.601 237.583L758.262 237.646L769.372 232.706L780.482 227.756L778.824 249.174L777.165 270.502L776.973 272.761L776.782 275.021L776.393 275.757L776.01 276.493L775.103 276.785L774.195 277.077L773.972 277.668L773.742 278.261L773.699 280.841L773.459 294.907L773.184 311.503L773.263 311.96L773.35 312.419L773.677 312.639L774.011 312.847L783.28 312.88L791.726 312.906L800.135 312.93L809.432 312.965L809.727 312.93L810.006 312.897L810.3 312.909L810.591 312.918L810.851 312.971L811.113 313.019L811.304 313.111L811.495 313.199L812.828 323.935L814.17 334.648L816.621 345.095L819.079 355.526L822.381 367.942L825.666 380.327L827.401 382.055L829.112 383.781L831.031 384.193L831 384.479L821.584 387.631L820.939 388.939L819.972 389.979L821.285 401.657L821.416 402.116L821.607 402.5L822.038 403.213L822.686 403.861L823.151 404.135L824.213 404.621L831.175 406.184L831.597 406.463L831.872 406.78L832.028 407.162L832.063 407.774L832.04 408.597L831.849 410.097V411.501L831.979 411.885L832.683 413.341L834.366 415.821L832.206 420.268L820.426 439.15L818.922 437.934L818.047 436.981L817.784 436.594L817.616 436.237L817.532 435.937L817.545 435.563L817.998 434.246L818.063 433.461L817.952 433.093L817.737 432.753L815.111 430.256L812.948 428.681L812.076 428.29L811.395 428.207L810.667 428.448L805.109 431.57L803.306 432.249L801.779 432.421L800.526 432.273L799.162 431.82L797.765 431.173L796.173 430.195L795.028 429.739L793.941 429.627L792.927 429.907L791.98 430.487L791.085 431.327L790.381 432.273L789.749 433.322L788.759 435.586L788.532 436.897L788.509 438.258L789.189 439.706L789.727 440.428L790.074 441.098L790.025 441.733L789.416 442.698L788.855 443.125L787.36 443.722L786.978 444.217L786.954 444.835L787.791 446.799L788.069 449.766L787.528 451.574L786.49 453.443L786.395 453.974L786.586 454.588L786.862 455.002L788.048 455.825L787.953 456.617L787.571 457.19L785.645 459.471L784.977 460.524L784.5 461.597L783.903 463.475L781.906 467.339L781.75 467.974L781.893 468.42L782.227 468.574L782.788 468.615L784.248 468.397L784.929 468.369L785.657 468.463L786.218 468.697L786.672 469.189L786.876 469.714L786.863 470.363L786.47 471.044L785.777 471.741L780.809 475.542L779.953 475.916L763.344 478.844L760.089 478.292L756.747 476.535L755.135 476.977L753.631 476.337L752.172 475.385L749.049 474.466L747.843 473.414L745.865 471.131L745.09 471.009L744.834 470.905L743.307 470.661L736.283 468.073L735.161 468.017L734.66 468.222L734.207 468.628L733.742 469.41L733.528 469.94L733.46 470.371L733.472 471.378L733.329 473.056L733.222 473.483L733.079 473.863L732.936 474.14L732.686 474.53L730.712 476.958L730.653 477.499L730.916 477.795L731.441 477.855L731.959 477.978L732.388 478.19L732.71 478.503L732.804 478.885L732.745 479.331L732.459 480.008L731.238 482.172L731.023 482.664L729.71 486.928L729.21 487.915L728.542 488.301L727.536 488.559L725.34 488.582L723.193 488.312L720.897 487.478L718.303 486.261L717.742 486.222L717.265 486.403L716.86 486.984L716.669 487.479L716.383 488.904L715.738 489.39L715.154 489.738L710.52 490.738L706.72 491.174L706.023 491.321L705.537 491.542L705.187 491.844L705.057 492.245L705.641 493.284L707.936 495.426L709.464 496.548L710.025 497.077L710.696 497.849L713.024 504.76L713.119 505.4L713.047 506.61L712.869 507.372L712.667 508.027L710.4 512.247L710.328 512.743L711.272 515.176L715.381 521.917L713.921 522.692L706.314 524.171L706.123 521.89L705.991 521.323L705.223 519.142L704.746 518.235L704.435 517.772L703.206 516.378L701.834 515.24L700.672 514.706L698.834 514.155L697.35 513.451L696.73 511.745L696.48 509.957L696.456 508.62L695.824 506.791L694.416 504.848L685.225 501.301L684.533 500.371L683.372 500.173L680.026 501.438L678.534 501.366L677.461 500.924L677.186 500.228L676.792 499.48L676.685 499.004L673.066 497.36L670.926 496.149L665.336 489.779L664.142 487.751L665.229 485.643L666.481 483.358L668.98 480.765L669.255 480.412L669.852 479.894L670.461 478.814L675.163 477.04L676.544 476.233L677.905 475.155L678.968 473.93L682.62 467.794L683.794 467.008L684.482 466.987L685.062 466.624L685.539 466.346L686.064 466.239L688.367 466.009L688.462 465.723L688.14 465.186L686.959 463.953L684.692 462.056L683.817 460.882L683.71 460.552L683.758 460.359L684.128 460.257L684.812 459.717L686.089 456.589L684.167 454.991L683.758 453.385L683.794 452.657L683.913 451.885L684.128 451.105L684.835 450.389L686.113 449.808L688.791 449.433L690.522 449.42L692.013 449.767L693.569 450.886L695.217 451.794L696.971 452.269L706.025 452.347L706.852 450.951L708.594 446.394L710.018 445.295L711.7 443.676L713.753 438.402L713.884 437.365L714.759 436.293L715.356 435.859L716.084 435.687L716.847 435.721L720.874 436.429L721.9 436.46L721.958 435.504L721.673 434.514L721.505 432.842L721.482 430.78L721.649 428.593L722.019 426.466L723.838 421.295L720.147 422.174L696.815 420.842L689.221 419.308L686.556 418.054L683.89 416.228L682.804 413.774L682.1 411.558L680.465 403.151L679.794 401.158L678.863 401.057L676.392 403.94L673.931 404.817L670.574 405.392L660.385 405.768L657.791 406.58L656.323 407.224L653.984 414.688L652.25 416.012L631.405 413.969L628.143 413.007L627.08 411.203L626.949 405.703L626.555 402.855L624.979 400.926L623.471 399.883L622.028 399.564L620.477 400.005L618.957 401.016L617.572 402.661L612.997 410.533L607.503 417.269L598.33 419.913L598.45 418.284L595.629 415.926L593.887 413.4L570.722 401.667L558.859 396.173L548.742 392.937L541.936 391.657L540.094 390.786L529.714 375.673L516.766 363.114L514.865 360.335L512.418 355.697L505.929 355.571L478.648 364.085L445.64 326.731L445.031 325.578L444.983 324.456L446.659 323.292L463.2 315.612L464.124 314.804L464.445 314.346L462.925 311.696L454.144 298.389L453.917 297.572V296.524L455.648 278.787L459.89 270.627L479.625 239.434L500.589 206.905L501.007 205.903L501.02 205.035L499.85 204.47L479.028 199.724L475.169 196.788L466.934 185.196Z" fill="#0B72B6" stroke="white" stroke-linecap="round" stroke-linejoin="round"/>
<path d="M388.103 377.775L387.089 379.208L386.587 379.669L386.078 380.021L382.401 376.878L377.015 375.804L361.508 376.577L352.215 379.144L347.593 379.239L344.911 378.605L342.7 377.294L338.523 373.84L333.876 371.023L326.47 367.887L318.044 364.314L315.881 362.547L315.349 360.552L316.312 353.787L316.917 352.343L317.919 351.161L319.232 350.205L322.416 348.891L323.474 347.826L322.773 346.274L317.65 340.287L315.279 336.524L314.579 333.567L316.56 331.234L318.677 330.027L321.087 329.857L323.983 330.61L326.639 331.999L328.143 332.555L329.353 332.42L330.244 331.319L330.101 330.115L329.353 328.946L328.415 327.966L327.332 327.206L323.688 325.424L322.534 324.44L321.657 323.334L322.562 322.504L323.481 320.609L323.325 319.671L322.43 318.226L322.275 317.845L322.155 317.465L322.382 317.076L322.907 316.733L324.113 316.535L326.205 316.469L327.792 315.92L331.722 313.646L333.19 312.578L333.644 312.358L334.893 312.176L336.536 313.225L337.36 313.59L341.222 314.407L345.029 314.75L346.123 315.488L346.389 317.242L346.341 321.076L346.961 322.413L349.042 325.049L349.889 327.22L352.045 330.418L353.128 331.555L354.464 332.279L356.075 332.617L359.766 332.714L360.979 333.287L361.851 334.682L363.16 337.97L365.145 340.884L367.639 343.221L385.876 356.795L387.834 357.132L388.797 357.469L389.699 357.953L392.464 360.52L394.838 362.293L396.577 362.868L401.032 363.578L402.485 364.28L406.57 368.025L407.549 369.245L408.46 371.7L409.634 372.18L410.131 372.426L411.96 373.014L413.918 372.86L415.267 372.013L418.325 367.161L419.555 365.945L420.735 365.171L422.136 364.594L423.651 364.31L427.821 364.319L442.529 367.243L446.252 368.548L449.728 370.295L454.268 373.158L467.372 385.073L476.569 397.132L476.883 397.399L477.969 397.908L479.127 398.223L483.189 397.126L495.757 408.757L498.251 411.945L499.185 414.739L495.207 421.881L479.159 438.289L479.154 438.295L479.021 438.1L478.401 436.205L477.948 435.432L475.084 432.282L474.046 430.524L472.46 425.406L471.584 424.243L469.046 421.961L468.202 420.858L467.59 419.078L466.707 415.27L464.285 408.261L463.425 406.607L464.006 405.98L463.633 404.748L463.425 398.847L463.163 397.138L462.511 395.749L456.862 387.922L455.358 386.565L438.148 376.115L431.449 373.73L423.962 372.101L421.121 371.835L419.396 372.535L418.354 374.304L417.605 377.262L415.719 378.152L414.256 380.788L412.092 382.749L409.436 383.854L406.501 383.937L403.374 382.886L395.449 378.242L394.081 378.206L389.529 378.849L389.1 378.085L388.861 377.334L388.566 377.139L388.103 377.775Z" fill="#813988" stroke="white" stroke-linecap="round" stroke-linejoin="round"/>
<path d="M647.019 566.901L644.693 564.415L642.864 563.478L640.54 563.705L634.58 566.162L632.592 566.515L630.316 566.162L628.008 565.169L615.62 557.875L604.871 551.542L596.342 546.509L591.663 542.541L583.388 533.02L578.504 529.192L567.81 522.929L542.429 508.037L529.922 500.684L519.428 494.504L510.421 489.195L505.973 485.508L505.142 485.116L499.616 479.384L498.78 477.18L497.428 472.541L497.213 470.644L497.535 468.86L498.175 467.359L498.605 465.863L498.303 464.102L495.94 459.876L495.625 458.19L495.566 455.994L495.284 454.345L494.652 452.842L492.67 449.564L492.193 448.029L491.954 444.525L491.211 443.778L484.846 440.761L481.19 439.859L479.527 438.824L479.159 438.284L479.165 438.278L495.213 421.869L499.191 414.728L498.257 411.934L495.763 408.746L483.195 397.115L500.588 390.245L500.529 389.095L478.645 364.079L505.926 355.565L512.415 355.691L514.862 360.328L516.763 363.108L529.711 375.667L540.091 390.779L541.933 391.65L548.739 392.931L558.856 396.166L570.719 401.66L593.884 413.393L595.626 415.919L598.447 418.277L598.327 419.907L607.501 417.263L612.994 410.526L617.569 402.655L618.954 401.009L620.474 399.999L622.025 399.557L623.468 399.877L624.976 400.92L626.552 402.848L626.946 405.696L627.077 411.196L628.14 413L631.402 413.963L652.247 416.006L653.981 414.681L656.32 407.217L657.788 406.574L660.382 405.761L670.571 405.386L673.928 404.811L676.389 403.934L678.86 401.05L679.791 401.151L680.462 403.144L682.097 411.551L682.801 413.767L683.887 416.221L686.553 418.047L689.218 419.301L696.812 420.835L720.144 422.167L723.835 421.288L722.016 426.46L721.646 428.587L721.479 430.773L721.502 432.836L721.67 434.507L721.956 435.497L721.897 436.454L720.871 436.423L716.844 435.715L716.082 435.681L715.353 435.852L714.756 436.287L713.881 437.359L713.75 438.396L711.697 443.67L710.015 445.289L708.591 446.387L706.849 450.944L706.022 452.341L696.968 452.263L695.214 451.788L693.566 450.88L692.01 449.761L690.519 449.413L688.788 449.426L686.11 449.802L684.832 450.383L684.125 451.098L683.91 451.879L683.791 452.65L683.755 453.379L684.164 454.985L686.086 456.582L684.809 459.711L684.125 460.25L683.755 460.353L683.707 460.545L683.814 460.875L684.689 462.05L686.956 463.946L688.137 465.18L688.459 465.716L688.364 466.002L686.061 466.233L685.536 466.34L685.059 466.617L684.479 466.981L683.791 467.001L682.617 467.787L678.965 473.924L677.902 475.149L676.541 476.227L675.16 477.033L670.458 478.808L669.849 479.887L669.252 480.405L668.977 480.758L666.478 483.352L665.226 485.637L664.139 487.744L665.333 489.773L670.923 496.142L673.063 497.354L676.682 498.998L676.789 499.473L677.183 500.221L677.458 500.918L678.531 501.359L680.023 501.431L683.369 500.167L684.53 500.365L685.222 501.295L694.408 504.847L695.816 506.79L696.448 508.619L696.471 509.957L696.721 511.745L697.341 513.45L698.826 514.154L700.664 514.706L701.825 515.24L703.197 516.378L704.426 517.771L704.737 518.235L705.214 519.141L705.982 521.322L706.115 521.889L706.306 524.17L702.674 526.429L694.956 532.781L693.99 533.397L693.079 533.671L692.375 533.627L691.432 533.718L690.858 533.942L690.404 534.236L684.541 539.5L683.798 540.328L683.332 541.021L683.248 541.468V541.89L683.332 542.282L683.451 542.659L683.821 543.361L684.359 544.008L686.821 546.497L687.083 546.821L687.298 547.227L687.357 547.7L687.178 548.382L686.821 548.715L686.379 548.927L673.574 552.751L669.44 553.984L658.846 557.488L655.237 559.531L648.211 565.86L647.018 566.889L647.019 566.901Z" fill="#E3001B" stroke="white" stroke-linecap="round" stroke-linejoin="round"/>
<path d="M1022.38 378.645L1020.06 378.151L1019.1 376.73L1019.54 375.907L1019.47 375.57L1018.24 376.617L1016.32 374.82L1015.77 373.885L1015.63 372.836L1014.33 373.473L1014.11 373.294L1016.11 369.203L1016.73 366.543L1020.81 363.153L1023.41 363.13L1025.23 364.18L1027.59 364.442L1030.44 365.943L1030.72 367.307L1029.55 368.979L1030.61 369.54L1031.4 370.514L1030.85 371.3L1031.64 371.975L1028.73 373.173L1024.82 376.092L1022.38 378.645Z" fill="#F7B333" stroke="#F7B333" stroke-linecap="round" stroke-linejoin="round"/>
</svg>
